<svg width="25" height="123" viewBox="0 0 25 123" fill="none" xmlns="http://www.w3.org/2000/svg">
<path d="M11.997 0.333335C10.5242 0.334988 9.33168 1.53024 9.33334 3.00299C9.33499 4.47575 10.5302 5.66832 12.003 5.66666C13.4758 5.66501 14.6683 4.46976 14.6667 2.99701C14.665 1.52425 13.4698 0.331682 11.997 0.333335ZM11.7679 111.234C11.9634 111.429 12.28 111.428 12.475 111.233L15.6535 108.047C15.8485 107.852 15.8481 107.535 15.6527 107.34C15.4572 107.145 15.1406 107.146 14.9456 107.341L12.1203 110.173L9.2887 107.347C9.09322 107.152 8.77664 107.153 8.5816 107.348C8.38655 107.544 8.38691 107.86 8.58239 108.055L11.7679 111.234ZM11.5 3.00056L11.6211 110.88L12.6211 110.879L12.5 2.99944L11.5 3.00056Z" fill="white"/>
<circle cx="12.1212" cy="110.879" r="11.6212" stroke="white"/>
</svg>
