<svg width="115" height="148" viewBox="0 0 115 148" fill="none" xmlns="http://www.w3.org/2000/svg">
<path d="M2.4387 58.0164L2.44677 56.9765L9.38656 57.0303L9.3785 58.0703L2.4387 58.0164ZM2.53925 45.0568L2.54732 44.0168L9.48711 44.0707L9.47904 45.1107L2.53925 45.0568ZM2.49425 50.8566L2.50232 49.8167L9.04212 49.8674L9.03406 50.9074L2.49425 50.8566ZM1.96733 44.0123L3.0673 44.0209L2.95869 58.0205L1.85872 58.0119L1.96733 44.0123ZM19.7304 44.1502L21.0504 44.1604L16.8588 50.7881L21.2417 58.1623L19.9218 58.1521L16.2912 51.7637L12.462 58.0942L11.142 58.0839L15.7388 50.7794L11.7506 44.0882L13.0706 44.0985L16.3263 49.8239L19.7304 44.1502ZM23.3143 44.178L24.4143 44.1865L24.3057 58.1861L23.2057 58.1775L23.3143 44.178ZM23.9263 45.2227L23.9343 44.1828L26.5942 44.2034C27.4742 44.2102 28.2529 44.3829 28.9303 44.7215C29.621 45.0602 30.164 45.5378 30.5592 46.1542C30.9545 46.7706 31.1487 47.5122 31.142 48.3788C31.1354 49.2321 30.9296 49.9705 30.5248 50.5941C30.1199 51.2176 29.5696 51.6934 28.8737 52.0213C28.1912 52.336 27.41 52.49 26.53 52.4832L23.8701 52.4625L23.8782 51.4225L26.5381 51.4432C27.5647 51.4512 28.4001 51.191 29.0442 50.6626C29.6883 50.1343 30.0143 49.3701 30.022 48.3701C30.0299 47.3568 29.7158 46.5877 29.0799 46.0627C28.4441 45.5245 27.6128 45.2513 26.5862 45.2434L23.9263 45.2227ZM33.7437 44.2589L34.8437 44.2674L34.7431 57.227L40.523 57.2719L40.5149 58.3118L33.6351 58.2584L33.7437 44.2589ZM42.2913 51.3254C42.2823 52.4854 42.5209 53.5272 43.0071 54.451C43.5066 55.3749 44.1876 56.1069 45.0501 56.647C45.9261 57.1738 46.924 57.4415 48.044 57.4502C49.164 57.4589 50.1593 57.2066 51.03 56.6934C51.9141 56.1669 52.6064 55.4455 53.1068 54.5294C53.6073 53.6133 53.862 52.5752 53.871 51.4152C53.8801 50.2419 53.6415 49.2001 53.1552 48.2896C52.669 47.3658 51.988 46.6405 51.112 46.1137C50.2495 45.5736 49.2583 45.2993 48.1383 45.2906C47.0184 45.2819 46.0163 45.5408 45.1322 46.0673C44.2615 46.5805 43.5693 47.2952 43.0555 48.2112C42.5552 49.114 42.3004 50.1521 42.2913 51.3254ZM41.1314 51.3164C41.1393 50.2898 41.32 49.3445 41.6734 48.4805C42.0269 47.6032 42.5194 46.847 43.151 46.2119C43.7828 45.5635 44.52 45.0625 45.3628 44.709C46.2189 44.3557 47.1469 44.1829 48.1469 44.1906C49.1468 44.1984 50.0654 44.3855 50.9026 44.752C51.7531 45.1186 52.4892 45.631 53.1107 46.2892C53.7324 46.934 54.2132 47.6978 54.553 48.5804C54.8929 49.4498 55.0589 50.3978 55.051 51.4244C55.043 52.451 54.8623 53.403 54.5088 54.2803C54.1554 55.1442 53.6629 55.9004 53.0311 56.5489C52.3995 57.184 51.6557 57.6782 50.7996 58.0316C49.9568 58.3851 49.0354 58.5579 48.0355 58.5502C47.0355 58.5424 46.1103 58.3552 45.2597 57.9886C44.4226 57.6221 43.6931 57.1164 43.0714 56.4716C42.4499 55.8134 41.9691 55.0497 41.6292 54.1803C41.2893 53.2977 41.1234 52.343 41.1314 51.3164ZM59.9919 51.7827L61.2119 51.7922L65.9399 58.5091L64.58 58.4985L59.9919 51.7827ZM57.6688 44.4445L58.7688 44.453L58.6601 58.4526L57.5602 58.4441L57.6688 44.4445ZM58.2412 45.429L58.2488 44.449L60.8687 44.4693C61.7753 44.4763 62.5807 44.6426 63.2849 44.9681C64.0024 45.2936 64.5655 45.758 64.9741 46.3612C65.3828 46.9644 65.5838 47.6993 65.577 48.566C65.5704 49.4193 65.3581 50.151 64.94 50.7611C64.5219 51.3712 63.9516 51.8335 63.2292 52.1479C62.5202 52.449 61.7123 52.5961 60.8057 52.5891L58.1858 52.5687L58.1934 51.5888L60.8133 51.6091C61.5199 51.6146 62.1475 51.5061 62.6959 51.2837C63.2577 51.048 63.6937 50.7048 64.0039 50.2538C64.3142 49.7895 64.4719 49.2241 64.4771 48.5574C64.4823 47.8908 64.3266 47.3296 64.0101 46.8738C63.707 46.4181 63.283 46.0681 62.7382 45.8239C62.1934 45.5796 61.5677 45.4548 60.8611 45.4493L58.2412 45.429ZM68.6086 58.5298L68.6167 57.4898L75.5564 57.5437L75.5484 58.5836L68.6086 58.5298ZM68.7091 45.5702L68.7172 44.5302L75.657 44.584L75.6489 45.624L68.7091 45.5702ZM68.6641 51.37L68.6722 50.33L75.212 50.3808L75.2039 51.4207L68.6641 51.37ZM68.1372 44.5257L69.2372 44.5342L69.1286 58.5338L68.0286 58.5253L68.1372 44.5257ZM77.8725 45.6413L77.8805 44.6013L87.6002 44.6767L79.2599 57.5724L87.1797 57.6338L87.1716 58.6738L77.3719 58.5978L85.7122 45.7021L77.8725 45.6413Z" fill="white"/>
<path d="M64.024 63.0104C61.0785 63.0101 58.6904 65.3977 58.6901 68.3432C58.6898 71.2887 61.0774 73.6768 64.0229 73.6771C66.9684 73.6774 69.3565 71.2898 69.3568 68.3443C69.3571 65.3988 66.9695 63.0107 64.024 63.0104ZM63.3084 147.207C63.6989 147.598 64.3321 147.598 64.7227 147.207L71.0873 140.844C71.4778 140.453 71.4779 139.82 71.0874 139.43C70.6969 139.039 70.0637 139.039 69.6732 139.429L64.0158 145.086L58.3595 139.428C57.969 139.038 57.3358 139.038 56.9453 139.428C56.5547 139.819 56.5546 140.452 56.9451 140.842L63.3084 147.207ZM63.0234 68.3437L63.0156 146.5L65.0156 146.5L65.0234 68.3438L63.0234 68.3437Z" fill="url(#paint0_radial_1599_4608)"/>
<circle cx="64.3864" cy="50.3855" r="49.5" transform="rotate(-89.5555 64.3864 50.3855)" stroke="url(#paint1_linear_1599_4608)"/>
<defs>
<radialGradient id="paint0_radial_1599_4608" cx="0" cy="0" r="1" gradientUnits="userSpaceOnUse" gradientTransform="translate(63.5039 101.078) rotate(-179.994) scale(0.5 39.0781)">
<stop stop-color="#999999"/>
<stop offset="0.805" stop-color="white"/>
</radialGradient>
<linearGradient id="paint1_linear_1599_4608" x1="64.3864" y1="0.385502" x2="64.3864" y2="100.386" gradientUnits="userSpaceOnUse">
<stop stop-color="#999999"/>
<stop offset="0.84" stop-color="white"/>
</linearGradient>
</defs>
</svg>
