<svg width="157" height="101" viewBox="0 0 157 101" fill="none" xmlns="http://www.w3.org/2000/svg">
<path d="M19.292 51.0151C19.2828 52.2017 19.528 53.2503 20.0277 54.1609C20.5273 55.0715 21.2017 55.79 22.051 56.3166C22.9003 56.8432 23.8516 57.1106 24.9049 57.1188C25.5715 57.124 26.1787 57.0554 26.7265 56.9129C27.2743 56.7705 27.7693 56.5543 28.2116 56.2644C28.6672 55.9746 29.0699 55.6311 29.4196 55.2338L29.4081 56.7137C28.8175 57.2292 28.1744 57.6175 27.479 57.8788C26.7838 58.1267 25.9228 58.2467 24.8962 58.2388C23.9229 58.2312 23.0176 58.0509 22.1803 57.6977C21.3564 57.3313 20.6403 56.8257 20.032 56.181C19.4236 55.5362 18.9495 54.7725 18.6097 53.8899C18.2699 53.0072 18.104 52.0459 18.1121 51.0059C18.1201 49.966 18.3009 49.0073 18.6544 48.13C19.0079 47.2528 19.4938 46.4965 20.112 45.8613C20.7303 45.2261 21.4541 44.7383 22.2835 44.3981C23.1262 44.0446 24.0343 43.8717 25.0076 43.8792C26.0342 43.8872 26.8931 44.0272 27.5844 44.2992C28.2757 44.5579 28.9127 44.9495 29.4953 45.4741L29.484 46.934C29.1405 46.5313 28.7431 46.1883 28.292 45.9047C27.8409 45.6079 27.3426 45.384 26.7971 45.2331C26.2516 45.0822 25.6522 45.0042 24.9989 44.9992C23.9456 44.991 22.9903 45.2436 22.1329 45.757C21.2757 46.257 20.5902 46.9584 20.0765 47.8611C19.5628 48.7638 19.3014 49.8151 19.292 51.0151ZM32.6574 44.1186L33.7573 44.1271L33.6568 57.0867L39.4366 57.1315L39.4285 58.1715L32.5487 58.1181L32.6574 44.1186ZM41.4647 44.1869L42.5647 44.1954L42.4561 58.195L41.3561 58.1865L41.4647 44.1869ZM46.1853 51.2237C46.1763 52.3837 46.4149 53.4256 46.9011 54.3494C47.4006 55.2733 48.0816 56.0052 48.9441 56.5453C49.82 57.0721 50.818 57.3398 51.938 57.3485C53.0579 57.3572 54.0532 57.1049 54.9239 56.5917C55.808 56.0652 56.5003 55.3439 57.0008 54.4277C57.5012 53.5116 57.7559 52.4735 57.7649 51.3136C57.774 50.1403 57.5355 49.0984 57.0492 48.1879C56.563 47.2641 55.8819 46.5388 55.006 46.012C54.1435 45.472 53.1523 45.1976 52.0323 45.1889C50.9123 45.1802 49.9103 45.4391 49.0262 45.9656C48.1555 46.4789 47.4633 47.1935 46.9495 48.1096C46.4491 49.0124 46.1944 50.0504 46.1853 51.2237ZM45.0253 51.2147C45.0333 50.1881 45.214 49.2428 45.5673 48.3788C45.9208 47.5016 46.4134 46.7454 47.045 46.1102C47.6767 45.4618 48.4139 44.9608 49.2567 44.6074C50.1128 44.254 51.0409 44.0812 52.0408 44.0889C53.0408 44.0967 53.9594 44.2838 54.7965 44.6503C55.6471 45.0169 56.3831 45.5293 57.0047 46.1875C57.6264 46.8324 58.1071 47.5961 58.447 48.4788C58.7869 49.3481 58.9529 50.2961 58.9449 51.3227C58.9369 52.3494 58.7562 53.3013 58.4027 54.1786C58.0494 55.0425 57.5568 55.7987 56.9251 56.4472C56.2935 57.0823 55.5496 57.5766 54.6935 57.9299C53.8508 58.2834 52.9294 58.4563 51.9294 58.4485C50.9294 58.4407 50.0042 58.2536 49.1537 57.887C48.3165 57.5204 47.5871 57.0148 46.9654 56.3699C46.3438 55.7118 45.8631 54.948 45.5231 54.0787C45.1833 53.196 45.0174 52.2414 45.0253 51.2147ZM51.8774 52.2679L53.3373 52.2792L59.4506 58.3269L57.9906 58.3155L51.8774 52.2679ZM61.4237 44.3417L62.5236 44.3503L62.4501 53.83C62.4414 54.95 62.7278 55.8455 63.3093 56.5167C63.8908 57.1879 64.7215 57.5277 65.8014 57.5361C66.8814 57.5445 67.7173 57.2176 68.3091 56.5555C68.9009 55.8934 69.2012 55.0024 69.2099 53.8824L69.2834 44.4027L70.3834 44.4112L70.3099 53.891C70.3045 54.5843 70.1995 55.2235 69.995 55.8086C69.7905 56.3803 69.4934 56.8714 69.1035 57.2817C68.7137 57.692 68.2378 58.015 67.676 58.2507C67.1275 58.4731 66.5 58.5815 65.7934 58.5761C65.0867 58.5706 64.4543 58.4523 63.8961 58.2213C63.3513 57.9771 62.8872 57.6468 62.5037 57.2305C62.1203 56.8142 61.8308 56.3186 61.6352 55.7437C61.4398 55.1555 61.3447 54.5148 61.3501 53.8215L61.4237 44.3417ZM74.1236 58.4407L74.1317 57.4007L81.0714 57.4546L81.0634 58.4945L74.1236 58.4407ZM74.2241 45.4811L74.2322 44.4411L81.172 44.4949L81.1639 45.5349L74.2241 45.4811ZM74.1791 51.2809L74.1872 50.2409L80.727 50.2917L80.7189 51.3316L74.1791 51.2809ZM73.6522 44.4366L74.7522 44.4451L74.6436 58.4447L73.5436 58.4362L73.6522 44.4366Z" fill="white"/>
<path d="M86.6745 50.8438C86.6745 53.7893 89.0623 56.1771 92.0078 56.1771C94.9533 56.1771 97.3411 53.7893 97.3411 50.8438C97.3411 47.8982 94.9533 45.5104 92.0078 45.5104C89.0623 45.5104 86.6745 47.8982 86.6745 50.8438ZM156.715 51.5509C157.105 51.1603 157.105 50.5272 156.715 50.1366L150.351 43.7727C149.96 43.3822 149.327 43.3822 148.937 43.7727C148.546 44.1632 148.546 44.7964 148.937 45.1869L154.594 50.8438L148.937 56.5006C148.546 56.8911 148.546 57.5243 148.937 57.9148C149.327 58.3053 149.96 58.3053 150.351 57.9148L156.715 51.5509ZM92.0078 51.8438H156.008V49.8438H92.0078V51.8438Z" fill="url(#paint0_radial_1685_1827)"/>
<circle cx="50.3864" cy="50.3855" r="49.5" transform="rotate(-89.5555 50.3864 50.3855)" stroke="url(#paint1_linear_1685_1827)"/>
<defs>
<radialGradient id="paint0_radial_1685_1827" cx="0" cy="0" r="1" gradientUnits="userSpaceOnUse" gradientTransform="translate(124.008 51.3438) rotate(90) scale(0.5 32)">
<stop stop-color="#999999"/>
<stop offset="0.805" stop-color="white"/>
</radialGradient>
<linearGradient id="paint1_linear_1685_1827" x1="50.3864" y1="0.385502" x2="50.3864" y2="100.386" gradientUnits="userSpaceOnUse">
<stop stop-color="#999999"/>
<stop offset="0.84" stop-color="white"/>
</linearGradient>
</defs>
</svg>
