<svg width="185" height="101" viewBox="0 0 185 101" fill="none" xmlns="http://www.w3.org/2000/svg">
<path d="M1.96733 44.0123L3.0673 44.0209L2.95869 58.0205L1.85872 58.0119L1.96733 44.0123ZM5.65861 58.0414L2.4587 58.0166L2.46724 56.9166L5.66714 56.9414C6.53378 56.9482 7.32151 56.8143 8.03033 56.5398C8.75248 56.2653 9.36885 55.8768 9.87943 55.3741C10.3901 54.858 10.7816 54.241 11.0538 53.5231C11.3395 52.792 11.4858 51.9798 11.4927 51.0865C11.4997 50.1931 11.3659 49.3854 11.0915 48.6633C10.8306 47.9279 10.4487 47.3049 9.94599 46.7943C9.44338 46.2704 8.83316 45.8657 8.11536 45.5801C7.41088 45.2946 6.62533 45.1485 5.75869 45.1418L2.55878 45.117L2.56732 44.017L5.76722 44.0418C7.12718 44.0524 8.3182 44.355 9.34029 44.9496C10.3757 45.5443 11.176 46.3705 11.7411 47.4283C12.3197 48.4728 12.6036 49.695 12.5927 51.095C12.5818 52.4949 12.279 53.7193 11.6842 54.768C11.1028 55.8036 10.2898 56.6106 9.24533 57.1892C8.21414 57.7679 7.01857 58.052 5.65861 58.0414ZM15.6805 58.1192L15.6886 57.0792L22.6284 57.133L22.6203 58.173L15.6805 58.1192ZM15.781 45.1595L15.7891 44.1196L22.7289 44.1734L22.7208 45.2134L15.781 45.1595ZM15.736 50.9594L15.7441 49.9194L22.2839 49.9701L22.2758 51.0101L15.736 50.9594ZM15.2091 44.1151L16.3091 44.1236L16.2005 58.1232L15.1005 58.1147L15.2091 44.1151ZM21.8034 39.7261L18.2397 42.7585L17.6629 42.3541L20.8476 39.1787L21.8034 39.7261ZM26.2181 51.2007C26.2089 52.3873 26.4541 53.4359 26.9537 54.3465C27.4533 55.2571 28.1278 55.9757 28.977 56.5023C29.8263 57.0289 30.7776 57.2963 31.8309 57.3044C32.4975 57.3096 33.1048 57.241 33.6525 57.0986C34.2003 56.9561 34.6954 56.74 35.1376 56.4501C35.5932 56.1602 35.9959 55.8167 36.3457 55.4194L36.3342 56.8993C35.7435 57.4148 35.1005 57.8031 34.4051 58.0644C33.7098 58.3124 32.8488 58.4324 31.8222 58.4244C30.8489 58.4168 29.9436 58.2365 29.1063 57.8833C28.2825 57.5169 27.5664 57.0113 26.958 56.3666C26.3497 55.7219 25.8756 54.9582 25.5358 54.0755C25.1959 53.1928 25.03 52.2315 25.0381 51.1915C25.0462 50.1516 25.227 49.1929 25.5804 48.3157C25.9339 47.4384 26.4198 46.6821 27.0381 46.0469C27.6564 45.4117 28.3802 44.9239 29.2095 44.5837C30.0523 44.2302 30.9603 44.0573 31.9336 44.0648C32.9602 44.0728 33.8192 44.2128 34.5104 44.4848C35.2018 44.7435 35.8388 45.1352 36.4214 45.6597L36.41 47.1196C36.0665 46.717 35.6691 46.3739 35.218 46.0904C34.767 45.7935 34.2687 45.5696 33.7232 45.4187C33.1776 45.2678 32.5782 45.1899 31.9249 45.1848C30.8716 45.1766 29.9163 45.4292 29.059 45.9426C28.2017 46.4426 27.5163 47.144 27.0026 48.0467C26.4889 48.9494 26.2274 50.0007 26.2181 51.2007ZM39.8891 51.3068C39.8801 52.4667 40.1187 53.5086 40.6048 54.4324C41.1044 55.3563 41.7854 56.0883 42.6479 56.6283C43.5238 57.1551 44.5218 57.4229 45.6417 57.4316C46.7617 57.4403 47.757 57.188 48.6277 56.6747C49.5118 56.1482 50.2041 55.4269 50.7045 54.5108C51.205 53.5946 51.4597 52.5566 51.4687 51.3966C51.4778 50.2233 51.2392 49.1814 50.753 48.2709C50.2668 47.3471 49.5857 46.6218 48.7098 46.095C47.8473 45.555 46.856 45.2806 45.7361 45.2719C44.6161 45.2632 43.6141 45.5221 42.73 46.0486C41.8593 46.5619 41.167 47.2766 40.6533 48.1926C40.1529 49.0954 39.8982 50.1335 39.8891 51.3068ZM38.7291 51.2978C38.7371 50.2711 38.9177 49.3258 39.2711 48.4619C39.6246 47.5846 40.1172 46.8284 40.7488 46.1933C41.3805 45.5448 42.1177 45.0439 42.9605 44.6904C43.8166 44.337 44.7446 44.1642 45.7446 44.172C46.7446 44.1797 47.6631 44.3669 48.5003 44.7334C49.3508 45.1 50.0869 45.6124 50.7085 46.2705C51.3302 46.9154 51.8109 47.6791 52.1507 48.5618C52.4907 49.4311 52.6567 50.3791 52.6487 51.4058C52.6407 52.4324 52.46 53.3843 52.1065 54.2616C51.7531 55.1256 51.2606 55.8818 50.6289 56.5302C49.9973 57.1654 49.2534 57.6596 48.3973 58.013C47.5545 58.3664 46.6332 58.5393 45.6332 58.5315C44.6332 58.5238 43.708 58.3366 42.8575 57.97C42.0203 57.6035 41.2909 57.0978 40.6692 56.453C40.0476 55.7948 39.5668 55.031 39.2269 54.1617C38.8871 53.279 38.7211 52.3244 38.7291 51.2978ZM55.1665 44.4251L56.2665 44.4336L56.1929 53.9133C56.1842 55.0333 56.4706 55.9289 57.0521 56.6001C57.6336 57.2713 58.4643 57.6111 59.5443 57.6194C60.6243 57.6278 61.4601 57.301 62.052 56.6389C62.6438 55.9768 62.944 55.0857 62.9527 53.9658L63.0263 44.4861L64.1262 44.4946L64.0527 53.9743C64.0473 54.6676 63.9424 55.3068 63.7378 55.8919C63.5334 56.4637 63.2362 56.9547 62.8464 57.365C62.4565 57.7754 61.9806 58.0984 61.4188 58.334C60.8704 58.5564 60.2429 58.6649 59.5362 58.6594C58.8296 58.6539 58.1971 58.5357 57.6389 58.3047C57.0941 58.0604 56.63 57.7302 56.2466 57.3138C55.8631 56.8975 55.5736 56.4019 55.3781 55.8271C55.1826 55.2389 55.0876 54.5981 55.093 53.9048L55.1665 44.4251ZM71.982 56.5359L77.0148 44.5946L78.2547 44.6042L71.9621 59.0958L65.8951 44.5083L67.1351 44.5179L71.982 56.5359ZM82.4327 51.9568L83.6526 51.9663L88.3806 58.6832L87.0207 58.6726L82.4327 51.9568ZM80.1095 44.6186L81.2095 44.6271L81.1009 58.6267L80.0009 58.6182L80.1095 44.6186ZM80.6819 45.6031L80.6895 44.6231L83.3094 44.6434C84.2161 44.6504 85.0215 44.8167 85.7256 45.1422C86.4431 45.4678 87.0062 45.9321 87.4149 46.5353C87.8235 47.1385 88.0245 47.8734 88.0178 48.7401C88.0112 49.5934 87.7988 50.3251 87.3807 50.9352C86.9626 51.5453 86.3924 52.0076 85.6699 52.322C84.9609 52.6231 84.1531 52.7702 83.2464 52.7632L80.6265 52.7428L80.6341 51.7629L83.254 51.7832C83.9607 51.7887 84.5882 51.6802 85.1366 51.4578C85.6985 51.2221 86.1345 50.8789 86.4446 50.4279C86.7549 49.9636 86.9126 49.3982 86.9178 48.7315C86.923 48.0649 86.7673 47.5037 86.4509 47.0479C86.1477 46.5922 85.7238 46.2422 85.179 45.998C84.6342 45.7537 84.0085 45.6289 83.3018 45.6234L80.6819 45.6031ZM91.0493 58.7039L91.0574 57.6639L97.9972 57.7178L97.9891 58.7577L91.0493 58.7039ZM91.1499 45.7443L91.1579 44.7043L98.0977 44.7581L98.0897 45.7981L91.1499 45.7443ZM91.1049 51.5441L91.1129 50.5041L97.6527 50.5549L97.6447 51.5948L91.1049 51.5441ZM90.5779 44.6998L91.6779 44.7083L91.5693 58.7079L90.4693 58.6994L90.5779 44.6998ZM100.313 45.8154L100.321 44.7754L110.041 44.8508L101.701 57.7465L109.62 57.8079L109.612 58.8479L99.8126 58.7719L108.153 45.8762L100.313 45.8154Z" fill="white"/>
<path d="M114.674 50.8438C114.674 53.7893 117.062 56.1771 120.008 56.1771C122.953 56.1771 125.341 53.7893 125.341 50.8438C125.341 47.8982 122.953 45.5104 120.008 45.5104C117.062 45.5104 114.674 47.8982 114.674 50.8438ZM184.715 51.5509C185.105 51.1603 185.105 50.5272 184.715 50.1366L178.351 43.7727C177.96 43.3822 177.327 43.3822 176.937 43.7727C176.546 44.1632 176.546 44.7964 176.937 45.1869L182.594 50.8438L176.937 56.5006C176.546 56.8911 176.546 57.5243 176.937 57.9148C177.327 58.3053 177.96 58.3053 178.351 57.9148L184.715 51.5509ZM120.008 51.8438H184.008V49.8438H120.008V51.8438Z" fill="url(#paint0_radial_1599_4608)"/>
<circle cx="78.3864" cy="50.3855" r="49.5" transform="rotate(-89.5555 78.3864 50.3855)" stroke="url(#paint1_linear_1599_4608)"/>
<defs>
<radialGradient id="paint0_radial_1599_4608" cx="0" cy="0" r="1" gradientUnits="userSpaceOnUse" gradientTransform="translate(152.008 51.3438) rotate(90) scale(0.5 32)">
<stop stop-color="#999999"/>
<stop offset="0.805" stop-color="white"/>
</radialGradient>
<linearGradient id="paint1_linear_1599_4608" x1="78.3864" y1="0.385502" x2="78.3864" y2="100.386" gradientUnits="userSpaceOnUse">
<stop stop-color="#999999"/>
<stop offset="0.84" stop-color="white"/>
</linearGradient>
</defs>
</svg>
