<svg width="82" height="73" viewBox="0 0 82 73" fill="none" xmlns="http://www.w3.org/2000/svg">
<path d="M35.4646 41.531C34.2717 39.5706 33.6489 37.3949 34.7906 36.7053C35.5487 36.2474 36.471 36.4988 37.4524 37.0998C36.404 38.0123 35.751 39.1892 35.5973 40.4459L35.4646 41.531Z" fill="black" stroke="white" stroke-width="2" stroke-miterlimit="10"/>
<path d="M39.1543 45.6062C38.5342 45.0532 37.9338 44.4806 37.3951 43.9714C37.0653 43.6599 36.7356 43.296 36.4189 42.9015L36.6817 40.7881C36.8236 39.6483 37.4345 38.5839 38.412 37.7764C38.8692 38.1337 39.333 38.5391 39.7902 38.9588C39.7902 38.9588 38.7799 40.3444 39.5419 42.2251C40.254 43.9823 39.153 45.6051 39.153 45.6051L39.1543 45.6062Z" fill="black" stroke="white" stroke-width="2" stroke-miterlimit="10"/>
<path d="M42.2405 47.8417C41.694 47.5937 41.1001 47.1992 40.4971 46.7326C40.4971 46.7326 41.8595 44.0181 41.0173 41.9888C40.3145 40.295 40.7441 39.8491 40.7441 39.8491C40.8781 39.9759 41.0121 40.1026 41.1435 40.2272C42.3969 41.4096 43.7751 43.3078 44.3768 44.9721C43.444 45.7174 42.7384 46.6375 42.3193 47.6549L42.2418 47.8428L42.2405 47.8417Z" fill="black" stroke="white" stroke-width="2" stroke-miterlimit="10"/>
<path d="M42.9033 48.072C43.3789 48.1791 43.7967 48.1255 44.1265 47.848C44.6967 47.3682 44.7913 46.5825 44.585 45.6733C43.8966 46.3257 43.3553 47.0765 42.9861 47.8884L42.9033 48.072Z" fill="black" stroke="white" stroke-width="2" stroke-miterlimit="10"/>
<mask id="path-5-inside-1_906_520" fill="white">
<path d="M43.7977 62.1222C31.8196 53.7536 18.4764 38.8962 14.8779 26.1095C13.7808 22.0629 13.7073 16.1357 20.4642 16.3411C22.8909 16.4439 25.1835 17.3192 27.1739 18.4305C27.5208 18.6043 28.2946 19.0993 28.631 19.3026C28.5692 19.2654 27.5234 18.7015 27.5063 18.6895C27.2751 18.5792 26.8376 18.3682 26.6024 18.2546C26.3121 18.1005 25.8522 17.9388 25.5461 17.7989C25.4003 17.7333 25.1572 17.6525 25.0048 17.5967L24.4596 17.4022L23.9012 17.2372C22.9881 16.9618 22.004 16.7804 21.0358 16.7138C15.3719 16.4023 14.577 20.2325 15.23 24.0376C17.7709 36.798 32.5435 53.3274 43.7964 62.1211L43.7977 62.1222Z"/>
</mask>
<path d="M43.7977 62.1222C31.8196 53.7536 18.4764 38.8962 14.8779 26.1095C13.7808 22.0629 13.7073 16.1357 20.4642 16.3411C22.8909 16.4439 25.1835 17.3192 27.1739 18.4305C27.5208 18.6043 28.2946 19.0993 28.631 19.3026C28.5692 19.2654 27.5234 18.7015 27.5063 18.6895C27.2751 18.5792 26.8376 18.3682 26.6024 18.2546C26.3121 18.1005 25.8522 17.9388 25.5461 17.7989C25.4003 17.7333 25.1572 17.6525 25.0048 17.5967L24.4596 17.4022L23.9012 17.2372C22.9881 16.9618 22.004 16.7804 21.0358 16.7138C15.3719 16.4023 14.577 20.2325 15.23 24.0376C17.7709 36.798 32.5435 53.3274 43.7964 62.1211L43.7977 62.1222Z" fill="black"/>
<path d="M43.7977 62.1222L43.225 62.9419L44.4383 61.3543L43.7977 62.1222ZM14.8779 26.1095L13.9127 26.3712L13.9153 26.3804L14.8779 26.1095ZM20.4642 16.3411L20.5065 15.342L20.4946 15.3416L20.4642 16.3411ZM27.1739 18.4305L26.6864 19.3037L26.706 19.3146L26.726 19.3246L27.1739 18.4305ZM28.631 19.3026L28.1154 20.1594L29.1482 18.4467L28.631 19.3026ZM27.5063 18.6895L28.0819 17.8718L28.013 17.8233L27.9371 17.7871L27.5063 18.6895ZM26.6024 18.2546L26.1337 19.1379L26.1503 19.1468L26.1673 19.155L26.6024 18.2546ZM25.5461 17.7989L25.9617 16.8893L25.9562 16.8869L25.5461 17.7989ZM25.0048 17.5967L25.3483 16.6575L25.3408 16.6549L25.0048 17.5967ZM24.4596 17.4022L24.7956 16.4604L24.7695 16.4511L24.743 16.4432L24.4596 17.4022ZM23.9012 17.2372L23.6125 18.1946L23.6178 18.1962L23.9012 17.2372ZM21.0358 16.7138L21.1044 15.716L21.0907 15.7153L21.0358 16.7138ZM15.23 24.0376L14.2444 24.2067L14.2466 24.2198L14.2492 24.2329L15.23 24.0376ZM43.7964 62.1211L44.437 61.3532L44.4247 61.343L44.4121 61.3331L43.7964 62.1211ZM44.3704 61.3024C38.4581 57.1718 32.1932 51.4269 26.9646 45.1336C21.7272 38.8295 17.5867 32.0435 15.8405 25.8386L13.9153 26.3804C15.7676 32.9622 20.098 39.9982 25.4263 46.4117C30.7635 52.8358 37.1592 58.704 43.225 62.9419L44.3704 61.3024ZM15.843 25.8479C15.3117 23.888 15.0815 21.6357 15.6693 19.9622C15.9528 19.1551 16.4176 18.505 17.1238 18.0551C17.8381 17.6001 18.888 17.2937 20.4339 17.3407L20.4946 15.3416C18.662 15.2859 17.1872 15.6434 16.0492 16.3683C14.9031 17.0984 14.1879 18.1446 13.7823 19.2994C12.9919 21.5498 13.347 24.2844 13.9127 26.3712L15.843 25.8479ZM20.422 17.3402C22.6395 17.4341 24.7773 18.2377 26.6864 19.3037L27.6614 17.5574C25.5897 16.4007 23.1422 15.4536 20.5065 15.342L20.422 17.3402ZM26.726 19.3246C27.0262 19.475 27.7175 19.919 28.1137 20.1584L29.1482 18.4467C28.8717 18.2796 28.0153 17.7336 27.6218 17.5364L26.726 19.3246ZM29.1465 18.4457C29.0901 18.4118 28.7779 18.2427 28.5286 18.1076C28.3926 18.0338 28.259 17.9614 28.1582 17.9066C28.1077 17.8791 28.0665 17.8567 28.0378 17.8409C28.0232 17.8329 28.0134 17.8276 28.0078 17.8244C28.0047 17.8227 28.0052 17.823 28.0077 17.8244C28.0087 17.8249 28.0131 17.8275 28.0193 17.8311C28.0223 17.8329 28.0282 17.8365 28.0357 17.8411C28.0401 17.8439 28.0588 17.8555 28.0819 17.8718L26.9308 19.5073C26.9541 19.5237 26.9732 19.5356 26.9781 19.5387C26.9861 19.5437 26.9927 19.5476 26.9965 19.5498C27.0041 19.5544 27.0106 19.5581 27.0141 19.5601C27.0215 19.5644 27.0288 19.5685 27.0343 19.5715C27.046 19.578 27.0605 19.586 27.0763 19.5946C27.1082 19.6122 27.152 19.636 27.2029 19.6637C27.305 19.7192 27.4399 19.7923 27.5752 19.8657C27.711 19.9393 27.8472 20.0132 27.9533 20.071C28.0762 20.1379 28.124 20.1646 28.1154 20.1594L29.1465 18.4457ZM27.9371 17.7871C27.7082 17.6778 27.2726 17.4678 27.0375 17.3542L26.1673 19.155C26.4026 19.2687 26.842 19.4805 27.0756 19.592L27.9371 17.7871ZM27.0712 17.3713C26.8752 17.2673 26.6432 17.171 26.4573 17.0953C26.2489 17.0104 26.0896 16.9478 25.9617 16.8894L25.1305 18.7085C25.3087 18.7899 25.5325 18.8781 25.703 18.9476C25.8962 19.0263 26.0392 19.0878 26.1337 19.1379L27.0712 17.3713ZM25.9562 16.8869C25.7669 16.8017 25.4446 16.6928 25.3483 16.6576L24.6614 18.5359C24.8699 18.6122 25.0337 18.6649 25.136 18.711L25.9562 16.8869ZM25.3408 16.6549L24.7956 16.4604L24.1236 18.3441L24.6688 18.5386L25.3408 16.6549ZM24.743 16.4432L24.1846 16.2782L23.6178 18.1962L24.1762 18.3612L24.743 16.4432ZM24.1899 16.2798C23.2056 15.9829 22.1477 15.788 21.1044 15.7161L20.9671 17.7114C21.8604 17.7729 22.7706 17.9407 23.6125 18.1946L24.1899 16.2798ZM21.0907 15.7153C18.0191 15.5464 15.978 16.507 14.9035 18.3227C13.894 20.0286 13.9057 22.2333 14.2444 24.2067L16.2156 23.8685C15.9013 22.0368 15.984 20.4239 16.6247 19.3413C17.2003 18.3685 18.3885 17.5697 20.9809 17.7123L21.0907 15.7153ZM14.2492 24.2329C15.5667 30.8492 20.0149 38.3234 25.4629 45.1885C30.9292 52.0768 37.4918 58.4634 43.1807 62.909L44.4121 61.3331C38.8481 56.9851 32.3979 50.7102 27.0295 43.9453C21.6427 37.1572 17.4342 29.9864 16.2107 23.8423L14.2492 24.2329ZM43.1558 62.8889L43.1571 62.89L44.4383 61.3543L44.437 61.3532L43.1558 62.8889Z" fill="white" mask="url(#path-5-inside-1_906_520)"/>
<mask id="path-7-inside-2_906_520" fill="white">
<path d="M60.2638 48.9669C63.5102 53.5041 67.9522 61.4257 66.3533 66.7443C65.7188 68.8129 63.8452 70.1691 61.2412 70.2172C58.5098 70.2729 55.9295 69.2938 53.6145 68.2239C52.0813 67.4885 50.6256 66.6558 49.25 65.7444C50.7425 66.517 52.2547 67.2601 53.826 67.8917C57.1224 69.2173 62.8875 71.0586 65.0526 67.5027C67.6474 62.7797 62.7403 53.5162 60.2638 48.9658V48.9669Z"/>
</mask>
<path d="M60.2638 48.9669C63.5102 53.5041 67.9522 61.4257 66.3533 66.7443C65.7188 68.8129 63.8452 70.1691 61.2412 70.2172C58.5098 70.2729 55.9295 69.2938 53.6145 68.2239C52.0813 67.4885 50.6256 66.6558 49.25 65.7444C50.7425 66.517 52.2547 67.2601 53.826 67.8917C57.1224 69.2173 62.8875 71.0586 65.0526 67.5027C67.6474 62.7797 62.7403 53.5162 60.2638 48.9658V48.9669Z" fill="black"/>
<path d="M60.2638 48.9669H59.2638V49.2878L59.4505 49.5488L60.2638 48.9669ZM66.3533 66.7443L67.3094 67.0376L67.311 67.0322L66.3533 66.7443ZM61.2412 70.2172L61.2228 69.2173L61.2208 69.2174L61.2412 70.2172ZM53.6145 68.2239L53.182 69.1256L53.1885 69.1287L53.195 69.1317L53.6145 68.2239ZM49.25 65.7444L49.7097 64.8563L48.6977 66.578L49.25 65.7444ZM53.826 67.8917L54.1991 66.9639L54.199 66.9639L53.826 67.8917ZM65.0526 67.5027L65.9068 68.0228L65.9184 68.0037L65.9291 67.9842L65.0526 67.5027ZM60.2638 48.9658L61.1421 48.4878L59.2638 48.9658H60.2638ZM59.4505 49.5488C61.0457 51.7782 62.9225 54.8239 64.2002 57.9418C65.4947 61.1005 66.0926 64.138 65.3957 66.4564L67.311 67.0322C68.2129 64.032 67.3893 60.4495 66.0509 57.1834C64.6957 53.8766 62.7283 50.6928 61.077 48.385L59.4505 49.5488ZM65.3973 66.451C64.9088 68.0435 63.4637 69.1759 61.2228 69.2173L61.2597 71.217C64.2268 71.1622 66.5287 69.5823 67.3094 67.0376L65.3973 66.451ZM61.2208 69.2174C58.7289 69.2682 56.3229 68.374 54.034 67.3162L53.195 69.1317C55.536 70.2135 58.2907 71.2776 61.2616 71.2169L61.2208 69.2174ZM54.047 67.3223C52.5566 66.6074 51.1409 65.7976 49.8023 64.9108L48.6977 66.578C50.1103 67.5139 51.6059 68.3696 53.182 69.1256L54.047 67.3223ZM48.7903 66.6325C50.2931 67.4104 51.838 68.1704 53.4531 68.8196L54.199 66.9639C52.6714 66.3498 51.1919 65.6236 49.7097 64.8563L48.7903 66.6325ZM53.453 68.8195C55.1191 69.4895 57.4991 70.3293 59.7784 70.5241C62.0384 70.7173 64.5261 70.2902 65.9068 68.0228L64.1985 66.9826C63.414 68.271 61.9366 68.7013 59.9487 68.5314C57.9801 68.3631 55.8294 67.6195 54.1991 66.9639L53.453 68.8195ZM65.9291 67.9842C66.7074 66.5675 66.8867 64.8825 66.7439 63.1705C66.6004 61.452 66.1254 59.6214 65.5042 57.8402C64.2622 54.2793 62.3794 50.7611 61.1421 48.4878L59.3854 49.4439C60.6247 51.7209 62.4337 55.1096 63.6157 58.4988C64.2065 60.1926 64.6265 61.8479 64.7508 63.3368C64.8756 64.8323 64.6953 66.0764 64.1762 67.0212L65.9291 67.9842ZM59.2638 48.9658V48.9669H61.2638V48.9658H59.2638Z" fill="white" mask="url(#path-7-inside-2_906_520)"/>
<mask id="path-9-inside-3_906_520" fill="white">
<path d="M17.2717 50.5147C11.9455 49.0624 3.70516 46.0955 0.813444 41.9385C-0.372936 40.2393 -0.303304 38.3378 1.29824 36.8407C3.92326 34.4224 8.86191 33.5558 12.5971 33.111C14.3839 32.9198 16.1799 32.8083 17.9798 32.7832C17.0891 32.8816 16.1996 32.9799 15.3141 33.0946C11.3503 33.6279 5.70874 34.548 2.63703 36.7653C0.537542 38.2559 0.425867 40.1584 1.93019 42.0281C5.17139 45.8627 12.2056 48.5728 17.2717 50.5147Z"/>
</mask>
<path d="M17.2717 50.5147C11.9455 49.0624 3.70516 46.0955 0.813444 41.9385C-0.372936 40.2393 -0.303304 38.3378 1.29824 36.8407C3.92326 34.4224 8.86191 33.5558 12.5971 33.111C14.3839 32.9198 16.1799 32.8083 17.9798 32.7832C17.0891 32.8816 16.1996 32.9799 15.3141 33.0946C11.3503 33.6279 5.70874 34.548 2.63703 36.7653C0.537542 38.2559 0.425867 40.1584 1.93019 42.0281C5.17139 45.8627 12.2056 48.5728 17.2717 50.5147Z" fill="black"/>
<path d="M17.2717 50.5147L17.0086 51.4795L17.6296 49.5809L17.2717 50.5147ZM0.813444 41.9385L1.63436 41.3675L1.63338 41.3661L0.813444 41.9385ZM1.29824 36.8407L0.620667 36.1052L0.615357 36.1102L1.29824 36.8407ZM12.5971 33.111L12.4907 32.1166L12.4789 32.1181L12.5971 33.111ZM17.9798 32.7832L18.0896 33.7772L17.9659 31.7833L17.9798 32.7832ZM15.3141 33.0946L15.1856 32.1029L15.1808 32.1036L15.3141 33.0946ZM2.63703 36.7653L3.21595 37.5807L3.22231 37.5761L2.63703 36.7653ZM1.93019 42.0281L1.15106 42.655L1.15865 42.6644L1.16647 42.6737L1.93019 42.0281ZM17.5347 49.5499C14.9047 48.8328 11.5715 47.7456 8.55302 46.3349C5.49674 44.9065 2.92134 43.2176 1.63436 41.3675L-0.00746732 42.5096C1.59726 44.8164 4.58787 46.6894 7.70622 48.1468C10.8624 49.6219 14.3125 50.7443 17.0086 51.4795L17.5347 49.5499ZM1.63338 41.3661C1.1452 40.6668 0.959736 39.9926 1.00725 39.3928C1.0541 38.8014 1.33548 38.1748 1.98113 37.5712L0.615357 36.1102C-0.340541 37.0037 -0.894746 38.0764 -0.986506 39.2348C-1.0776 40.3849 -0.704688 41.5109 -0.00649294 42.511L1.63338 41.3661ZM1.9758 37.5762C3.11865 36.5233 4.83289 35.7558 6.80372 35.198C8.75804 34.6448 10.8656 34.3243 12.7153 34.104L12.4789 32.1181C10.5934 32.3426 8.36406 32.6777 6.259 33.2736C4.17045 33.8648 2.10285 34.7398 0.620685 36.1052L1.9758 37.5762ZM12.7035 34.1054C14.4607 33.9173 16.2258 33.8078 17.9938 33.7831L17.9659 31.7833C16.134 31.8089 14.3071 31.9223 12.4907 32.1167L12.7035 34.1054ZM17.8701 31.7892C16.9807 31.8874 16.082 31.9868 15.1856 32.1029L15.4426 34.0864C16.3172 33.973 17.1974 33.8757 18.0896 33.7772L17.8701 31.7892ZM15.1808 32.1036C13.1907 32.3713 10.744 32.7405 8.39793 33.3285C6.07144 33.9115 3.74408 34.7329 2.05175 35.9545L3.22231 37.5761C4.60169 36.5805 6.63096 35.8331 8.88412 35.2685C11.1177 34.7087 13.4737 34.3513 15.4474 34.0857L15.1808 32.1036ZM2.05813 35.9499C0.854514 36.8044 0.0826323 37.8805 -0.0613581 39.141C-0.20391 40.3889 0.295424 41.5915 1.15106 42.655L2.70932 41.4013C2.06064 40.595 1.86364 39.9114 1.92572 39.368C1.98636 38.8372 2.32006 38.2167 3.21593 37.5807L2.05813 35.9499ZM1.16647 42.6737C2.92125 44.7497 5.63906 46.4593 8.4691 47.8755C11.3166 49.3004 14.3867 50.4798 16.9138 51.4484L17.6296 49.5809C15.0905 48.6077 12.1105 47.4612 9.36409 46.0869C6.60022 44.7039 4.18033 43.1411 2.69392 41.3826L1.16647 42.6737Z" fill="white" mask="url(#path-9-inside-3_906_520)"/>
<mask id="path-11-inside-4_906_520" fill="white">
<path d="M18.7747 48.8219C14.5915 47.7259 7.57828 45.2912 5.58522 41.8718C4.8521 40.637 5.12538 39.2371 6.28548 38.2558C7.56383 37.1598 9.33223 36.597 11.0507 36.1839C13.7677 35.5632 16.5753 35.3436 19.3764 35.3315C16.0367 35.7501 5.37763 36.9073 6.13439 40.825C6.98444 44.2497 15.159 47.3631 18.7734 48.8219H18.7747Z"/>
</mask>
<path d="M18.7747 48.8219C14.5915 47.7259 7.57828 45.2912 5.58522 41.8718C4.8521 40.637 5.12538 39.2371 6.28548 38.2558C7.56383 37.1598 9.33223 36.597 11.0507 36.1839C13.7677 35.5632 16.5753 35.3436 19.3764 35.3315C16.0367 35.7501 5.37763 36.9073 6.13439 40.825C6.98444 44.2497 15.159 47.3631 18.7734 48.8219H18.7747Z" fill="black"/>
<path d="M18.7747 48.8219V49.8219L19.0281 47.8546L18.7747 48.8219ZM5.58522 41.8718L6.44919 41.3682L6.44509 41.3613L5.58522 41.8718ZM6.28548 38.2558L6.93132 39.0193L6.93639 39.015L6.28548 38.2558ZM11.0507 36.1839L10.828 35.209L10.817 35.2116L11.0507 36.1839ZM19.3764 35.3315L19.5007 36.3238L19.3721 34.3316L19.3764 35.3315ZM6.13439 40.825L5.15254 41.0146L5.15752 41.0404L5.16384 41.0659L6.13439 40.825ZM18.7734 48.8219L18.3991 49.7492L18.5791 49.8219H18.7734V48.8219ZM19.0281 47.8546C16.9706 47.3155 14.2329 46.4507 11.7799 45.3112C9.27236 44.1463 7.27806 42.7903 6.44916 41.3683L4.72127 42.3754C5.88544 44.3727 8.39426 45.9437 10.9373 47.125C13.535 48.3318 16.3955 49.2323 18.5212 49.7893L19.0281 47.8546ZM6.44509 41.3613C5.98347 40.5838 6.10992 39.7141 6.93131 39.0193L5.63966 37.4923C4.14084 38.7602 3.72073 40.6902 4.72534 42.3823L6.44509 41.3613ZM6.93639 39.015C8.01905 38.0867 9.57944 37.566 11.2844 37.1562L10.817 35.2116C9.08503 35.6279 7.10861 36.2328 5.63458 37.4967L6.93639 39.015ZM11.2734 37.1588C13.8966 36.5595 16.6263 36.3434 19.3807 36.3315L19.3721 34.3316C16.5243 34.3438 13.6388 34.5669 10.828 35.209L11.2734 37.1588ZM19.252 34.3393C17.6062 34.5456 14.0248 34.9474 10.9511 35.8027C9.42431 36.2275 7.92564 36.7892 6.83853 37.5553C5.74563 38.3254 4.85541 39.4764 5.15254 41.0146L7.11624 40.6353C7.035 40.2147 7.19337 39.7519 7.99057 39.1902C8.79355 38.6243 10.0265 38.136 11.4873 37.7295C14.3889 36.9221 17.8069 36.5361 19.5007 36.3238L19.252 34.3393ZM5.16384 41.0659C5.45252 42.2289 6.31722 43.2356 7.31416 44.078C8.33279 44.9387 9.61608 45.7327 10.9464 46.4428C13.6063 47.8627 16.6124 49.0281 18.3991 49.7492L19.1476 47.8946C17.32 47.1569 14.4316 46.0362 11.8882 44.6785C10.6168 43.9998 9.47112 43.2822 8.60499 42.5503C7.71718 41.8002 7.24128 41.1334 7.10494 40.5841L5.16384 41.0659ZM18.7734 49.8219H18.7747V47.8219H18.7734V49.8219Z" fill="white" mask="url(#path-11-inside-4_906_520)"/>
<mask id="path-13-inside-5_906_520" fill="white">
<path d="M39.498 58.8201C33.771 62.0897 22.4157 67.3962 15.3789 66.2412C12.3833 65.7571 10.8396 63.884 11.0143 61.3936C11.2626 57.5831 14.6155 53.1966 17.2957 50.1784C19.5161 47.6999 21.9913 45.38 24.6268 43.2075C21.4132 46.3176 18.3363 49.5314 15.7809 53.0415C14.157 55.3319 12.6461 57.712 12.0575 60.327C12.0063 60.5292 11.9682 60.8527 11.9353 61.0592C11.6187 63.9474 13.4554 65.5057 16.8727 65.6554C23.7269 65.9243 33.5477 61.6351 39.4954 58.8201H39.498Z"/>
</mask>
<path d="M39.498 58.8201C33.771 62.0897 22.4157 67.3962 15.3789 66.2412C12.3833 65.7571 10.8396 63.884 11.0143 61.3936C11.2626 57.5831 14.6155 53.1966 17.2957 50.1784C19.5161 47.6999 21.9913 45.38 24.6268 43.2075C21.4132 46.3176 18.3363 49.5314 15.7809 53.0415C14.157 55.3319 12.6461 57.712 12.0575 60.327C12.0063 60.5292 11.9682 60.8527 11.9353 61.0592C11.6187 63.9474 13.4554 65.5057 16.8727 65.6554C23.7269 65.9243 33.5477 61.6351 39.4954 58.8201H39.498Z" fill="black"/>
<path d="M39.498 58.8201L39.9938 59.6885L43.2665 57.8201H39.498V58.8201ZM15.3789 66.2412L15.5408 65.2544L15.5384 65.254L15.3789 66.2412ZM11.0143 61.3936L12.0119 61.4636L12.0122 61.4586L11.0143 61.3936ZM17.2957 50.1784L16.5509 49.5111L16.548 49.5144L17.2957 50.1784ZM24.6268 43.2075L25.3223 43.9261L23.9908 42.4359L24.6268 43.2075ZM15.7809 53.0415L14.9724 52.4528L14.9651 52.4631L15.7809 53.0415ZM12.0575 60.327L13.0269 60.5727L13.0302 60.5597L13.0331 60.5466L12.0575 60.327ZM11.9353 61.0592L10.9477 60.9021L10.9439 60.9261L10.9413 60.9502L11.9353 61.0592ZM16.8727 65.6554L16.8289 66.6545L16.8335 66.6547L16.8727 65.6554ZM39.4954 58.8201V57.8201H39.2707L39.0676 57.9162L39.4954 58.8201ZM39.0022 57.9517C36.1752 59.5656 31.9582 61.6821 27.5919 63.2486C23.1854 64.8296 18.793 65.7882 15.5408 65.2544L15.2169 67.228C19.0016 67.8492 23.8052 66.7321 28.2673 65.1311C32.7697 63.5158 37.0939 61.3441 39.9938 59.6885L39.0022 57.9517ZM15.5384 65.254C14.2109 65.0394 13.3088 64.5352 12.7588 63.9095C12.2173 63.2936 11.9409 62.4751 12.0119 61.4636L10.0168 61.3236C9.91302 62.8026 10.3211 64.1658 11.2567 65.23C12.1837 66.2845 13.5513 66.9588 15.2193 67.2284L15.5384 65.254ZM12.0122 61.4586C12.1207 59.7946 12.9219 57.9122 14.0939 56.0143C15.2551 54.1338 16.7212 52.3314 18.0435 50.8424L16.548 49.5144C15.19 51.0436 13.6396 52.9436 12.3922 54.9635C11.1556 56.966 10.1563 59.182 10.0165 61.3286L12.0122 61.4586ZM18.0405 50.8456C20.2218 48.4108 22.6593 46.1253 25.2629 43.9792L23.9908 42.4359C21.3233 44.6346 18.8103 46.9891 16.5509 49.5111L18.0405 50.8456ZM23.9314 42.4889C20.7038 45.6125 17.5784 48.8733 14.9724 52.4529L16.5893 53.63C19.0941 50.1895 22.1227 47.0226 25.3223 43.9261L23.9314 42.4889ZM14.9651 52.4631C13.3372 54.7593 11.7181 57.2808 11.0819 60.1075L13.0331 60.5466C13.5741 58.1432 14.9768 55.9046 16.5967 53.6198L14.9651 52.4631ZM11.0882 60.0814C11.0223 60.3414 10.968 60.7745 10.9477 60.9021L12.9229 61.2163C12.9683 60.9309 12.9903 60.7171 13.0269 60.5727L11.0882 60.0814ZM10.9413 60.9502C10.756 62.6403 11.1986 64.0952 12.3313 65.1244C13.4206 66.1141 15.0023 66.5745 16.8289 66.6545L16.9164 64.6564C15.3257 64.5867 14.2805 64.1931 13.6762 63.6441C13.1155 63.1347 12.798 62.3664 12.9294 61.1682L10.9413 60.9502ZM16.8335 66.6547C20.4504 66.7965 24.762 65.7413 28.8483 64.3401C32.9566 62.9314 36.9383 61.1367 39.9232 59.724L39.0676 57.9162C36.1048 59.3185 32.2022 61.0758 28.1996 62.4483C24.175 63.8283 20.1491 64.7832 16.9119 64.6562L16.8335 66.6547ZM39.4954 59.8201H39.498V57.8201H39.4954V59.8201Z" fill="white" mask="url(#path-13-inside-5_906_520)"/>
<mask id="path-15-inside-6_906_520" fill="white">
<path d="M37.1852 56.7149C33.0703 58.9879 23.2036 63.5655 18.4265 61.404C17.0641 60.7702 16.5004 59.4752 16.5963 58.2349C16.8447 54.8276 20.1318 50.9876 22.632 48.3791C23.7501 47.2361 24.9312 46.1378 26.1702 45.0898C24.2651 47.1093 22.4218 49.1583 20.8045 51.3427C18.956 53.8605 14.4811 60.5341 20.5917 61.1942C25.508 61.5887 32.7747 58.5671 37.1852 56.716V56.7149Z"/>
</mask>
<path d="M37.1852 56.7149C33.0703 58.9879 23.2036 63.5655 18.4265 61.404C17.0641 60.7702 16.5004 59.4752 16.5963 58.2349C16.8447 54.8276 20.1318 50.9876 22.632 48.3791C23.7501 47.2361 24.9312 46.1378 26.1702 45.0898C24.2651 47.1093 22.4218 49.1583 20.8045 51.3427C18.956 53.8605 14.4811 60.5341 20.5917 61.1942C25.508 61.5887 32.7747 58.5671 37.1852 56.716V56.7149Z" fill="black"/>
<path d="M37.1852 56.7149H38.1852V55.0201L36.7017 55.8395L37.1852 56.7149ZM18.4265 61.404L18.0047 62.3107L18.0143 62.3151L18.4265 61.404ZM16.5963 58.2349L17.5934 58.312L17.5937 58.3076L16.5963 58.2349ZM22.632 48.3791L21.9171 47.6798L21.9101 47.6872L22.632 48.3791ZM26.1702 45.0898L26.8976 45.776L25.5243 44.3264L26.1702 45.0898ZM20.8045 51.3427L20.0008 50.7477L19.9984 50.7509L20.8045 51.3427ZM20.5917 61.1942L20.4843 62.1884L20.498 62.1899L20.5117 62.191L20.5917 61.1942ZM37.1852 56.716L37.5722 57.638L38.1852 57.3807V56.716H37.1852ZM36.7017 55.8395C34.6792 56.9567 31.2444 58.6385 27.7462 59.771C25.997 60.3372 24.2621 60.7562 22.6979 60.9075C21.12 61.0602 19.8073 60.9312 18.8387 60.4929L18.0143 62.3151C19.4342 62.9576 21.1463 63.0669 22.8905 62.8982C24.6485 62.7281 26.5331 62.2659 28.3622 61.6738C32.0204 60.4895 35.5764 58.746 37.6688 57.5902L36.7017 55.8395ZM18.8483 60.4973C17.9168 60.064 17.5249 59.1978 17.5934 58.312L15.5993 58.1578C15.476 59.7527 16.2113 61.4764 18.0047 62.3107L18.8483 60.4973ZM17.5937 58.3076C17.6986 56.8678 18.4642 55.2334 19.5964 53.5702C20.715 51.9268 22.1169 50.3617 23.354 49.0711L21.9101 47.6872C20.647 49.005 19.1552 50.6641 17.9431 52.4448C16.7446 54.2054 15.7424 56.1948 15.599 58.1622L17.5937 58.3076ZM23.3469 49.0784C24.4427 47.9581 25.6008 46.8812 26.816 45.8533L25.5243 44.3264C24.2617 45.3944 23.0575 46.5141 21.9172 47.6799L23.3469 49.0784ZM25.4427 44.4036C23.5298 46.4315 21.654 48.5148 20.0008 50.7477L21.6082 51.9378C23.1896 49.8018 25.0004 47.7871 26.8976 45.776L25.4427 44.4036ZM19.9984 50.7509C19.0797 52.0023 17.3925 54.4322 16.7514 56.6922C16.4324 57.8168 16.3114 59.1068 16.908 60.2072C17.535 61.3635 18.7777 62.0041 20.4843 62.1884L20.6991 60.2C19.3503 60.0543 18.8609 59.6131 18.6662 59.2538C18.441 58.8385 18.4085 58.179 18.6755 57.238C19.2063 55.3668 20.6808 53.2009 21.6106 51.9346L19.9984 50.7509ZM20.5117 62.191C23.1704 62.4043 26.3693 61.6969 29.378 60.7512C32.4106 59.798 35.3698 58.5624 37.5722 57.638L36.7982 55.7939C34.5902 56.7207 31.7107 57.9215 28.7783 58.8432C25.8219 59.7725 22.9293 60.3785 20.6717 60.1974L20.5117 62.191ZM38.1852 56.716V56.7149H36.1852V56.716H38.1852Z" fill="white" mask="url(#path-15-inside-6_906_520)"/>
<mask id="path-17-inside-7_906_520" fill="white">
<path d="M46.8686 67.1497C45.3406 69.767 42.2951 73.466 38.2749 72.9513C33.5109 72.1623 31.6479 66.1367 31.1211 62.6978C32.3285 65.798 34.805 72.9437 39.8803 72.2061C42.8364 71.6892 45.1488 69.0785 46.8686 67.1497Z"/>
</mask>
<path d="M46.8686 67.1497C45.3406 69.767 42.2951 73.466 38.2749 72.9513C33.5109 72.1623 31.6479 66.1367 31.1211 62.6978C32.3285 65.798 34.805 72.9437 39.8803 72.2061C42.8364 71.6892 45.1488 69.0785 46.8686 67.1497Z" fill="black"/>
<path d="M46.8686 67.1497L47.7322 67.6539L46.1222 66.4842L46.8686 67.1497ZM38.2749 72.9513L38.1115 73.9379L38.1296 73.9409L38.1479 73.9432L38.2749 72.9513ZM31.1211 62.6978L32.0529 62.3348L30.1326 62.8492L31.1211 62.6978ZM39.8803 72.2061L40.0242 73.1957L40.0384 73.1936L40.0526 73.1911L39.8803 72.2061ZM46.005 66.6456C45.2754 67.8951 44.2035 69.3651 42.874 70.4503C41.5501 71.531 40.0505 72.1705 38.4018 71.9594L38.1479 73.9432C40.5195 74.2469 42.5528 73.2942 44.1387 71.9997C45.719 70.7098 46.9337 69.0216 47.7322 67.6539L46.005 66.6456ZM38.4382 71.9648C36.4804 71.6405 35.0361 70.2335 33.9838 68.3338C32.9338 66.438 32.3625 64.1975 32.1096 62.5463L30.1326 62.8492C30.4065 64.637 31.0301 67.1288 32.2343 69.3028C33.4362 71.4728 35.3054 73.4732 38.1115 73.9379L38.4382 71.9648ZM30.1893 63.0607C30.7766 64.5687 31.7399 67.2546 33.2213 69.4504C34.6924 71.6308 36.9007 73.6496 40.0242 73.1957L39.7365 71.2165C37.7847 71.5001 36.2171 70.3149 34.8792 68.3318C33.5517 66.3641 32.673 63.927 32.0529 62.3348L30.1893 63.0607ZM40.0526 73.1911C41.7668 72.8914 43.2412 71.9954 44.4742 70.979C45.7057 69.9638 46.7633 68.7703 47.6149 67.8153L46.1222 66.4842C45.254 67.4579 44.2956 68.5342 43.202 69.4357C42.1098 70.3361 40.95 71.0038 39.7081 71.221L40.0526 73.1911Z" fill="white" mask="url(#path-17-inside-7_906_520)"/>
<mask id="path-19-inside-8_906_520" fill="white">
<path d="M41.3872 68.0035C39.921 68.8854 38.0987 68.4712 36.9202 67.4287C35.8061 66.4758 35.1242 65.2049 34.6841 63.958C34.3977 63.1242 34.2124 62.2741 34.1572 61.4097C34.9849 62.9494 35.6629 64.5405 36.7126 65.9622C37.7807 67.4287 39.2076 68.4953 41.3872 68.0035Z"/>
</mask>
<path d="M41.3872 68.0035C39.921 68.8854 38.0987 68.4712 36.9202 67.4287C35.8061 66.4758 35.1242 65.2049 34.6841 63.958C34.3977 63.1242 34.2124 62.2741 34.1572 61.4097C34.9849 62.9494 35.6629 64.5405 36.7126 65.9622C37.7807 67.4287 39.2076 68.4953 41.3872 68.0035Z" fill="black"/>
<path d="M41.3872 68.0035L41.9026 68.8604L41.1671 67.028L41.3872 68.0035ZM36.9202 67.4287L37.5828 66.6797L37.5765 66.6742L37.5702 66.6688L36.9202 67.4287ZM34.6841 63.958L33.7383 64.2829L33.7411 64.2909L34.6841 63.958ZM34.1572 61.4097L35.038 60.9362L33.1593 61.4734L34.1572 61.4097ZM36.7126 65.9622L37.5209 65.3734L37.5171 65.3682L36.7126 65.9622ZM40.8718 67.1466C39.8671 67.7508 38.5177 67.5068 37.5828 66.6797L36.2576 68.1777C37.6797 69.4356 39.9748 70.0199 41.9026 68.8604L40.8718 67.1466ZM37.5702 66.6688C36.6367 65.8704 36.0336 64.7769 35.627 63.6252L33.7411 64.2909C34.2148 65.6329 34.9754 67.0812 36.2702 68.1887L37.5702 66.6688ZM35.6298 63.6332C35.3682 62.8716 35.2039 62.1094 35.1552 61.346L33.1593 61.4734C33.2209 62.4387 33.4271 63.3769 33.7383 64.2829L35.6298 63.6332ZM33.2764 61.8832C34.0476 63.3176 34.8022 65.0584 35.9081 66.5562L37.5171 65.3682C36.5235 64.0226 35.9223 62.5812 35.038 60.9362L33.2764 61.8832ZM35.9043 66.5509C36.4888 67.3535 37.2239 68.1217 38.1792 68.6083C39.1592 69.1074 40.3003 69.2738 41.6073 68.979L41.1671 67.028C40.2944 67.2249 39.6323 67.1039 39.087 66.8261C38.5169 66.5358 38.0045 66.0374 37.5209 65.3735L35.9043 66.5509Z" fill="white" mask="url(#path-19-inside-8_906_520)"/>
<mask id="path-21-inside-9_906_520" fill="white">
<path d="M42.9328 58.5204C33.02 50.9266 24.4276 41.7855 19.4706 31.285C18.3078 28.5847 16.5132 23.8136 18.7072 21.2707C20.7857 19.1398 23.9415 20.0566 26.3813 21.1724C27.5742 21.7111 28.7002 22.3351 29.7998 22.9853C28.6529 22.3996 27.4836 21.8368 26.2709 21.3527C25.0767 20.8871 23.8114 20.4533 22.495 20.367C20.3903 20.2326 18.8281 21.2805 18.4984 23.0104C18.0122 25.6156 19.1947 28.5913 20.2851 31.0303C22.2178 35.1873 24.8743 39.1005 27.7779 42.8444C32.17 48.4821 37.3188 53.6936 42.9341 58.5204H42.9328Z"/>
</mask>
<path d="M42.9328 58.5204C33.02 50.9266 24.4276 41.7855 19.4706 31.285C18.3078 28.5847 16.5132 23.8136 18.7072 21.2707C20.7857 19.1398 23.9415 20.0566 26.3813 21.1724C27.5742 21.7111 28.7002 22.3351 29.7998 22.9853C28.6529 22.3996 27.4836 21.8368 26.2709 21.3527C25.0767 20.8871 23.8114 20.4533 22.495 20.367C20.3903 20.2326 18.8281 21.2805 18.4984 23.0104C18.0122 25.6156 19.1947 28.5913 20.2851 31.0303C22.2178 35.1873 24.8743 39.1005 27.7779 42.8444C32.17 48.4821 37.3188 53.6936 42.9341 58.5204H42.9328Z" fill="black"/>
<path d="M42.9328 58.5204L42.3247 59.3142L42.5938 59.5204H42.9328V58.5204ZM19.4706 31.285L18.5521 31.6805L18.5589 31.6963L18.5663 31.7119L19.4706 31.285ZM18.7072 21.2707L17.9914 20.5725L17.9701 20.5943L17.9501 20.6174L18.7072 21.2707ZM26.3813 21.1724L25.9654 22.0818L25.9697 22.0837L26.3813 21.1724ZM29.7998 22.9853L29.345 23.8759L30.3088 22.1245L29.7998 22.9853ZM26.2709 21.3527L26.6417 20.4239L26.6341 20.4209L26.2709 21.3527ZM22.495 20.367L22.5604 19.3691L22.5587 19.369L22.495 20.367ZM18.4984 23.0104L17.516 22.8232L17.5153 22.827L18.4984 23.0104ZM20.2851 31.0303L19.3722 31.4385L19.3752 31.4452L19.3784 31.4519L20.2851 31.0303ZM27.7779 42.8444L26.9877 43.4573L26.989 43.459L27.7779 42.8444ZM42.9341 58.5204V59.5204H45.6315L43.586 57.762L42.9341 58.5204ZM43.5409 57.7265C33.7034 50.1905 25.2408 41.1656 20.3749 30.8581L18.5663 31.7119C23.6145 42.4054 32.3366 51.6628 42.3247 59.3142L43.5409 57.7265ZM20.389 30.8895C19.8127 29.5511 19.114 27.7738 18.8155 26.0483C18.5106 24.2861 18.6685 22.8463 19.4644 21.924L17.9501 20.6174C16.5519 22.238 16.5101 24.4552 16.8447 26.3893C17.1857 28.3602 17.9657 30.3186 18.5521 31.6805L20.389 30.8895ZM19.4231 21.9689C20.2004 21.1721 21.1851 20.9144 22.3334 21.0012C23.5109 21.0902 24.7822 21.5407 25.9654 22.0818L26.7972 20.2629C25.5406 19.6883 24.0141 19.1225 22.4841 19.0069C20.925 18.889 19.2926 19.2384 17.9914 20.5725L19.4231 21.9689ZM25.9697 22.0837C27.1152 22.6011 28.2058 23.2045 29.2909 23.8461L30.3088 22.1245C29.1945 21.4656 28.0332 20.8211 26.7929 20.261L25.9697 22.0837ZM30.2546 22.0947C29.0951 21.5025 27.8951 20.9243 26.6417 20.4239L25.9002 22.2814C27.0721 22.7492 28.2106 23.2966 29.345 23.8759L30.2546 22.0947ZM26.6341 20.4209C25.4275 19.9506 24.0405 19.4662 22.5604 19.3691L22.4296 21.3648C23.5824 21.4404 24.7258 21.8237 25.9077 22.2844L26.6341 20.4209ZM22.5587 19.369C20.0858 19.2111 17.9636 20.4756 17.516 22.8232L19.4807 23.1977C19.6927 22.0854 20.6947 21.254 22.4313 21.3649L22.5587 19.369ZM17.5153 22.827C17.2341 24.334 17.4434 25.8929 17.8351 27.3434C18.2278 28.7974 18.8232 30.2105 19.3722 31.4385L21.1981 30.6222C20.6566 29.4111 20.1156 28.1168 19.766 26.822C19.4153 25.5235 19.2765 24.292 19.4814 23.1938L17.5153 22.827ZM19.3784 31.4519C21.3554 35.7045 24.0617 39.6845 26.9877 43.4573L28.5681 42.2316C25.6869 38.5166 23.0801 34.6701 21.1919 30.6088L19.3784 31.4519ZM26.989 43.459C31.4297 49.159 36.6273 54.4178 42.2823 59.2787L43.586 57.762C38.0104 52.9693 32.9103 47.8052 28.5667 42.2298L26.989 43.459ZM42.9341 57.5204H42.9328V59.5204H42.9341V57.5204Z" fill="white" mask="url(#path-21-inside-9_906_520)"/>
<mask id="path-23-inside-10_906_520" fill="white">
<path d="M58.8191 53.1704C60.7045 55.9778 63.8616 63.0208 59.6298 65.1856C57.458 66.1647 54.812 65.2773 52.8662 64.3233C54.8133 64.849 57.3437 65.5516 59.208 64.6097C62.5872 62.7126 59.7296 55.8903 58.8178 53.1704H58.8191Z"/>
</mask>
<path d="M58.8191 53.1704C60.7045 55.9778 63.8616 63.0208 59.6298 65.1856C57.458 66.1647 54.812 65.2773 52.8662 64.3233C54.8133 64.849 57.3437 65.5516 59.208 64.6097C62.5872 62.7126 59.7296 55.8903 58.8178 53.1704H58.8191Z" fill="black"/>
<path d="M58.8191 53.1704L59.6493 52.6129L59.3521 52.1704H58.8191V53.1704ZM59.6298 65.1856L60.0408 66.0972L60.0632 66.0871L60.0852 66.0758L59.6298 65.1856ZM52.8662 64.3233L53.1268 63.3579L52.426 65.2212L52.8662 64.3233ZM59.208 64.6097L59.659 65.5022L59.6785 65.4923L59.6976 65.4816L59.208 64.6097ZM58.8178 53.1704V52.1704H57.4279L57.8697 53.4883L58.8178 53.1704ZM57.989 53.7279C58.8827 55.0587 60.077 57.4018 60.5394 59.6228C60.7704 60.7322 60.8014 61.7311 60.5875 62.5314C60.3836 63.2937 59.9563 63.8953 59.1743 64.2953L60.0852 66.0758C61.4191 65.3935 62.1841 64.3028 62.5196 63.048C62.8449 61.8311 62.7624 60.4879 62.4974 59.2151C61.9678 56.6715 60.6409 54.0895 59.6493 52.6129L57.989 53.7279ZM59.2187 64.2739C58.3798 64.6522 57.3992 64.692 56.346 64.4962C55.2934 64.3005 54.2364 63.8814 53.3064 63.4255L52.426 65.2212C53.4418 65.7193 54.6807 66.2209 55.9804 66.4625C57.2797 66.7041 58.708 66.6981 60.0408 66.0972L59.2187 64.2739ZM52.6056 65.2888C53.5628 65.5472 54.7584 65.877 55.9574 66.0107C57.1537 66.144 58.478 66.0989 59.659 65.5022L58.7571 63.7171C58.0737 64.0624 57.2007 64.1369 56.1789 64.023C55.1599 63.9094 54.1167 63.6251 53.1268 63.3579L52.6056 65.2888ZM59.6976 65.4816C60.8587 64.8298 61.4459 63.7583 61.6808 62.6038C61.91 61.4772 61.8192 60.2191 61.6066 59.0235C61.1835 56.6444 60.1971 54.1387 59.766 52.8526L57.8697 53.4883C58.3503 54.9221 59.2486 57.1874 59.6375 59.3737C59.8308 60.4608 59.8778 61.4339 59.7209 62.2051C59.5697 62.9483 59.2469 63.441 58.7185 63.7377L59.6976 65.4816ZM58.8178 54.1704H58.8191V52.1704H58.8178V54.1704Z" fill="white" mask="url(#path-23-inside-10_906_520)"/>
<path d="M74.7355 30.1911C74.7039 30.1113 74.5922 30.0775 74.5108 30.1245C74.3019 30.2436 73.938 30.4862 74.0431 30.6949C74.1876 30.9834 74.2927 31.0948 74.4779 30.9604C74.6356 30.8446 74.8511 30.4829 74.7368 30.1911H74.7355Z" fill="black" stroke="white" stroke-linecap="round" stroke-linejoin="round"/>
<path d="M68.1333 23.8867C68.3002 25.0428 67.8903 25.9597 66.7381 26.7235C66.5462 26.8645 66.3728 26.9519 66.3623 27.1475C66.3768 27.3552 66.6566 27.4415 66.9115 27.3825C67.127 27.3366 67.349 27.2065 67.571 27.2513C67.8351 27.3038 68.0676 27.4885 68.3238 27.5748C68.9755 27.8229 69.635 27.7256 69.9044 27.1443C70.0095 26.9486 70.0371 26.6798 70.1395 26.5137C70.3038 26.2504 70.556 26.1017 70.3603 25.8264C70.1369 25.4592 69.6403 25.3117 69.3526 24.9816C69.1213 24.7336 68.9847 24.4232 68.9032 24.1457C68.831 23.9326 68.8415 23.7053 68.6405 23.5709C68.3974 23.4386 68.1517 23.6725 68.136 23.8703L68.1333 23.8867Z" fill="black" stroke="white" stroke-width="0.5" stroke-linecap="round" stroke-linejoin="round"/>
<mask id="path-27-inside-11_906_520" fill="white">
<path d="M29.6396 7.02639C31.1992 4.65724 34.0725 2.52413 37.3859 2.18318C38.5027 2.06407 39.6444 2.19083 40.6731 2.5132C39.5866 2.36786 38.4974 2.3471 37.4477 2.52085C34.2288 3.05194 31.6813 4.98289 29.6396 7.02748V7.02639Z"/>
</mask>
<path d="M29.6396 7.02639C31.1992 4.65724 34.0725 2.52413 37.3859 2.18318C38.5027 2.06407 39.6444 2.19083 40.6731 2.5132C39.5866 2.36786 38.4974 2.3471 37.4477 2.52085C34.2288 3.05194 31.6813 4.98289 29.6396 7.02748V7.02639Z" fill="black"/>
<path d="M29.6396 7.02639L28.8044 6.47656L28.6396 6.7268V7.02639H29.6396ZM37.3859 2.18318L37.4883 3.17793L37.492 3.17754L37.3859 2.18318ZM40.6731 2.5132L40.5405 3.50437L40.9721 1.55896L40.6731 2.5132ZM37.4477 2.52085L37.6105 3.50751L37.611 3.50743L37.4477 2.52085ZM29.6396 7.02748H28.6396V9.44414L30.3473 7.73408L29.6396 7.02748ZM30.4749 7.57622C31.8993 5.41232 34.5239 3.48296 37.4883 3.17793L37.2836 1.18843C33.6211 1.5653 30.499 3.90216 28.8044 6.47656L30.4749 7.57622ZM37.492 3.17754C38.4669 3.07355 39.4709 3.18441 40.3741 3.46744L40.9721 1.55896C39.8179 1.19725 38.5384 1.05458 37.2799 1.18882L37.492 3.17754ZM40.8057 1.52203C39.6472 1.36706 38.4551 1.34049 37.2844 1.53427L37.611 3.50743C38.5397 3.3537 39.526 3.36866 40.5405 3.50437L40.8057 1.52203ZM37.2849 1.53419C33.7615 2.11553 31.0309 4.21899 28.932 6.32088L30.3473 7.73408C32.3317 5.74678 34.6962 3.98835 37.6105 3.50751L37.2849 1.53419ZM30.6396 7.02748V7.02639H28.6396V7.02748H30.6396Z" fill="white" mask="url(#path-27-inside-11_906_520)"/>
<mask id="path-29-inside-12_906_520" fill="white">
<path d="M30.9693 21.8442C31.8325 23.1337 31.3451 25.0854 30.252 26.1902C30.4963 24.7248 30.9115 23.3381 30.9693 21.8442Z"/>
</mask>
<path d="M30.9693 21.8442C31.8325 23.1337 31.3451 25.0854 30.252 26.1902C30.4963 24.7248 30.9115 23.3381 30.9693 21.8442Z" fill="black"/>
<path d="M30.9693 21.8442L31.8003 21.288L30.089 18.7315L29.97 21.8056L30.9693 21.8442ZM30.252 26.1902L29.2656 26.0257L28.7475 29.1326L30.9628 26.8936L30.252 26.1902ZM30.1383 22.4005C30.3874 22.7726 30.477 23.2977 30.362 23.8986C30.2471 24.4993 29.9421 25.0816 29.5411 25.4869L30.9628 26.8936C31.6549 26.1941 32.1401 25.2481 32.3264 24.2744C32.5127 23.3008 32.4144 22.2054 31.8003 21.288L30.1383 22.4005ZM31.2383 26.3547C31.3578 25.6384 31.5112 24.9832 31.6616 24.2217C31.8067 23.4875 31.9366 22.7076 31.9686 21.8829L29.97 21.8056C29.9442 22.4747 29.8376 23.1351 29.6995 23.8341C29.5669 24.5057 29.3905 25.2766 29.2656 26.0257L31.2383 26.3547Z" fill="white" mask="url(#path-29-inside-12_906_520)"/>
<mask id="path-31-inside-13_906_520" fill="white">
<path d="M32.1609 26.4287C32.1806 26.6713 32.3133 26.8702 32.4052 27.0931C32.7022 27.7586 33.0135 28.4132 33.0214 29.1432C32.3395 28.6405 31.9493 27.9225 31.8994 27.1718C31.902 26.9226 31.9191 26.6068 32.1609 26.4287Z"/>
</mask>
<path d="M32.1609 26.4287C32.1806 26.6713 32.3133 26.8702 32.4052 27.0931C32.7022 27.7586 33.0135 28.4132 33.0214 29.1432C32.3395 28.6405 31.9493 27.9225 31.8994 27.1718C31.902 26.9226 31.9191 26.6068 32.1609 26.4287Z" fill="black"/>
<path d="M32.1609 26.4287L33.1576 26.3477L33.0123 24.5592L31.5677 25.6236L32.1609 26.4287ZM32.4052 27.0931L31.4808 27.4745L31.4862 27.4876L31.492 27.5006L32.4052 27.0931ZM33.0214 29.1432L32.428 29.9481L34.043 31.1387L34.0214 29.1324L33.0214 29.1432ZM31.8994 27.1718L30.8995 27.1613L30.8991 27.1997L30.9016 27.2382L31.8994 27.1718ZM31.1641 26.5097C31.1869 26.7899 31.2733 27.0169 31.3396 27.1686C31.3716 27.2419 31.4067 27.3143 31.4286 27.3603C31.454 27.4133 31.4691 27.4461 31.4808 27.4745L33.3297 26.7118C33.2954 26.6287 33.2595 26.553 33.2334 26.4985C33.204 26.4369 33.1874 26.4026 33.1724 26.368C33.1443 26.3038 33.1545 26.3101 33.1576 26.3477L31.1641 26.5097ZM31.492 27.5006C31.8147 28.2238 32.0163 28.6737 32.0215 29.154L34.0214 29.1324C34.0108 28.1527 33.5896 27.2935 33.3185 26.6857L31.492 27.5006ZM33.6148 28.3383C33.1564 28.0003 32.9265 27.5462 32.8972 27.1054L30.9016 27.2382C30.9722 28.2989 31.5227 29.2807 32.428 29.9481L33.6148 28.3383ZM32.8994 27.1823C32.8999 27.1271 32.9012 27.0903 32.9038 27.0606C32.9063 27.0312 32.909 27.0227 32.9076 27.028C32.906 27.034 32.8975 27.0639 32.8726 27.1049C32.8459 27.1488 32.8062 27.1954 32.7541 27.2338L31.5677 25.6236C30.872 26.1363 30.9013 26.9867 30.8995 27.1613L32.8994 27.1823Z" fill="white" mask="url(#path-31-inside-13_906_520)"/>
<mask id="path-33-inside-14_906_520" fill="white">
<path d="M72.4793 41.5132C75.9872 42.8977 80.9338 45.3456 81.9007 48.7059C82.8519 52.8683 76.7203 54.7741 72.8249 55.5052C70.0041 56.0384 67.1281 56.2668 64.2627 56.292C68.4774 55.7631 72.7329 55.2057 76.6152 53.7414C78.9289 52.865 81.6314 51.2455 81.0494 48.8501C80.2742 45.7849 75.4853 43.1513 72.4793 41.5143V41.5132Z"/>
</mask>
<path d="M72.4793 41.5132C75.9872 42.8977 80.9338 45.3456 81.9007 48.7059C82.8519 52.8683 76.7203 54.7741 72.8249 55.5052C70.0041 56.0384 67.1281 56.2668 64.2627 56.292C68.4774 55.7631 72.7329 55.2057 76.6152 53.7414C78.9289 52.865 81.6314 51.2455 81.0494 48.8501C80.2742 45.7849 75.4853 43.1513 72.4793 41.5143V41.5132Z" fill="black"/>
<path d="M72.4793 41.5132L72.8465 40.583L71.4793 40.0434V41.5132H72.4793ZM81.9007 48.7059L82.8756 48.4831L82.8694 48.456L82.8617 48.4293L81.9007 48.7059ZM72.8249 55.5052L72.6404 54.5223L72.6391 54.5226L72.8249 55.5052ZM64.2627 56.292L64.1382 55.2998L64.2715 57.2919L64.2627 56.292ZM76.6152 53.7414L76.9681 54.6771L76.9695 54.6766L76.6152 53.7414ZM81.0494 48.8501L82.0212 48.614L82.0189 48.605L81.0494 48.8501ZM72.4793 41.5143H71.4793V42.1084L72.0011 42.3925L72.4793 41.5143ZM72.1122 42.4434C73.8382 43.1246 75.8761 44.0519 77.5857 45.199C79.3278 46.3679 80.5567 47.6513 80.9397 48.9824L82.8617 48.4293C82.2778 46.4001 80.55 44.7795 78.7001 43.5382C76.8177 42.2752 74.6284 41.2863 72.8465 40.583L72.1122 42.4434ZM80.9259 48.9287C81.1005 49.693 80.9549 50.3178 80.5922 50.8781C80.2093 51.4697 79.5584 52.0236 78.6835 52.5244C76.9291 53.5287 74.5538 54.1632 72.6404 54.5223L73.0093 56.488C74.9914 56.116 77.6296 55.4322 79.6771 54.2601C80.7032 53.6728 81.6503 52.9241 82.2712 51.9649C82.9124 50.9743 83.1765 49.8 82.8756 48.4831L80.9259 48.9287ZM72.6391 54.5226C69.8883 55.0426 67.073 55.2673 64.2539 55.292L64.2715 57.2919C67.1832 57.2664 70.1199 57.0343 73.0106 56.4878L72.6391 54.5226ZM64.3872 57.2842C68.5844 56.7575 72.9573 56.1899 76.9681 54.6771L76.2623 52.8058C72.5085 54.2216 68.3705 54.7686 64.1382 55.2998L64.3872 57.2842ZM76.9695 54.6766C78.1741 54.2203 79.564 53.5421 80.5922 52.6041C81.6361 51.6518 82.4305 50.2987 82.0211 48.614L80.0777 49.0862C80.2503 49.7969 79.9845 50.4513 79.2442 51.1266C78.4882 51.8163 77.3701 52.3862 76.261 52.8063L76.9695 54.6766ZM82.0189 48.605C81.5402 46.712 79.8919 45.1085 78.199 43.8452C76.4634 42.5499 74.4531 41.4505 72.9576 40.6361L72.0011 42.3925C73.5116 43.2151 75.3987 44.2509 77.0028 45.448C78.6497 46.677 79.7834 47.923 80.0799 49.0953L82.0189 48.605ZM73.4793 41.5143V41.5132H71.4793V41.5143H73.4793Z" fill="white" mask="url(#path-33-inside-14_906_520)"/>
<path d="M59.2382 52.2805C59.2583 52.1917 59.2777 52.1028 59.2964 52.0136C59.29 52.5282 59.2608 53.0395 59.1982 53.5478C58.9637 55.2369 57.7916 56.7669 56.3814 58.1244C55.5683 58.9007 54.6769 59.6153 53.7231 60.2678C55.2997 59.0017 56.6943 57.5827 57.7773 55.9662L57.7781 55.965C58.5587 54.7928 58.9798 53.554 59.2382 52.2805Z" fill="black" stroke="white"/>
<mask id="path-36-inside-15_906_520" fill="white">
<path d="M70.4326 14.1007C70.4996 11.4988 70.6021 8.75151 69.145 6.38236C68.9335 6.05234 68.6786 5.73981 68.3975 5.43164C71.3746 7.24129 71.4705 11.4234 70.4326 14.1018V14.1007Z"/>
</mask>
<path d="M70.4326 14.1007C70.4996 11.4988 70.6021 8.75151 69.145 6.38236C68.9335 6.05234 68.6786 5.73981 68.3975 5.43164C71.3746 7.24129 71.4705 11.4234 70.4326 14.1018V14.1007Z" fill="black"/>
<path d="M70.4326 14.1007L69.4329 14.0749L69.4326 14.0878V14.1007H70.4326ZM69.145 6.38236L69.9968 5.8585L69.992 5.85058L69.9869 5.84274L69.145 6.38236ZM68.3975 5.43164L68.9169 4.57712L67.6587 6.10564L68.3975 5.43164ZM70.4326 14.1018H69.4326L71.365 14.4631L70.4326 14.1018ZM71.4322 14.1264C71.4975 11.5913 71.6367 8.52493 69.9968 5.8585L68.2932 6.90622C69.5674 8.9781 69.5016 11.4062 69.4329 14.0749L71.4322 14.1264ZM69.9869 5.84274C69.7344 5.44877 69.4397 5.0903 69.1362 4.75765L67.6587 6.10564C67.9175 6.38931 68.1326 6.65592 68.3031 6.92198L69.9869 5.84274ZM67.878 6.28616C69.0521 6.9998 69.7012 8.19975 69.9341 9.6045C70.1689 11.0206 69.9596 12.5547 69.5001 13.7404L71.365 14.4631C71.9434 12.9705 72.2051 11.0743 71.9072 9.27735C71.6074 7.46904 70.72 5.67313 68.9169 4.57712L67.878 6.28616ZM71.4326 14.1018V14.1007H69.4326V14.1018H71.4326Z" fill="white" mask="url(#path-36-inside-15_906_520)"/>
<mask id="path-38-inside-16_906_520" fill="white">
<path d="M31.2568 15.9193C31.7889 16.6984 32.2856 17.5355 32.5707 18.3999C32.748 18.9496 32.8255 19.543 32.8163 20.1167C32.7809 20.8958 32.6639 21.6848 32.6613 22.4574C32.635 23.7666 32.8728 25.0637 33.4365 26.2974C34.1617 27.965 35.2311 29.5299 36.0838 31.1691C36.6212 32.2039 37.1138 33.2934 37.2571 34.4288C37.3516 35.1042 37.3004 35.7883 37.2334 36.4603C37.1598 35.573 37.0797 34.678 36.7565 33.8289C35.4584 30.4085 32.2659 27.5082 31.9873 23.8157C31.7666 20.0981 33.2157 19.967 31.2581 15.916L31.2568 15.9193Z"/>
</mask>
<path d="M31.2568 15.9193C31.7889 16.6984 32.2856 17.5355 32.5707 18.3999C32.748 18.9496 32.8255 19.543 32.8163 20.1167C32.7809 20.8958 32.6639 21.6848 32.6613 22.4574C32.635 23.7666 32.8728 25.0637 33.4365 26.2974C34.1617 27.965 35.2311 29.5299 36.0838 31.1691C36.6212 32.2039 37.1138 33.2934 37.2571 34.4288C37.3516 35.1042 37.3004 35.7883 37.2334 36.4603C37.1598 35.573 37.0797 34.678 36.7565 33.8289C35.4584 30.4085 32.2659 27.5082 31.9873 23.8157C31.7666 20.0981 33.2157 19.967 31.2581 15.916L31.2568 15.9193Z" fill="black"/>
<path d="M31.2568 15.9193L30.3285 15.5475L30.1302 16.0427L30.431 16.4833L31.2568 15.9193ZM32.5707 18.3999L33.5224 18.0928L33.5203 18.0867L32.5707 18.3999ZM32.8163 20.1167L33.8153 20.1622L33.816 20.1474L33.8162 20.1327L32.8163 20.1167ZM32.6613 22.4574L33.6611 22.4775L33.6613 22.4691L33.6613 22.4608L32.6613 22.4574ZM33.4365 26.2974L34.3535 25.8986L34.3498 25.8902L34.346 25.8819L33.4365 26.2974ZM36.0838 31.1691L36.9713 30.7082L36.971 30.7076L36.0838 31.1691ZM37.2571 34.4288L36.2648 34.554L36.2667 34.5676L37.2571 34.4288ZM37.2334 36.4603L36.2368 36.543L38.2285 36.5595L37.2334 36.4603ZM36.7565 33.8289L35.8216 34.1837L35.8219 34.1846L36.7565 33.8289ZM31.9873 23.8157L30.9891 23.875L30.9896 23.883L30.9902 23.891L31.9873 23.8157ZM31.2581 15.916L32.1585 15.4809L31.1725 13.4405L30.3298 15.5442L31.2581 15.916ZM30.431 16.4833C30.9456 17.2367 31.3799 17.9822 31.621 18.7131L33.5203 18.0867C33.1912 17.0888 32.6323 16.1602 32.0826 15.3553L30.431 16.4833ZM31.619 18.707C31.759 19.141 31.8241 19.624 31.8165 20.1006L33.8162 20.1327C33.827 19.4619 33.737 18.7581 33.5223 18.0928L31.619 18.707ZM31.8174 20.0712C31.8008 20.4342 31.7655 20.7971 31.7303 21.2029C31.6961 21.5966 31.6628 22.0228 31.6613 22.454L33.6613 22.4608C33.6625 22.1194 33.689 21.7648 33.7228 21.3761C33.7555 20.9995 33.7964 20.5783 33.8153 20.1622L31.8174 20.0712ZM31.6615 22.4373C31.6325 23.8833 31.8955 25.331 32.5269 26.713L34.346 25.8819C33.8501 24.7964 33.6376 23.6498 33.6611 22.4775L31.6615 22.4373ZM32.5194 26.6963C32.906 27.5852 33.3788 28.4344 33.8464 29.244C34.3223 30.0682 34.7838 30.8368 35.1967 31.6306L36.971 30.7076C36.5312 29.8621 36.0316 29.0287 35.5783 28.2438C35.1167 27.4443 34.6921 26.6773 34.3535 25.8986L32.5194 26.6963ZM35.1963 31.6299C35.726 32.6499 36.1453 33.606 36.2649 34.554L38.2492 34.3037C38.0824 32.9809 37.5164 31.7579 36.9713 30.7082L35.1963 31.6299ZM36.2667 34.5676C36.3432 35.1135 36.305 35.6923 36.2383 36.3611L38.2285 36.5595C38.2958 35.8842 38.3601 35.0949 38.2474 34.2901L36.2667 34.5676ZM38.23 36.3777C38.1578 35.5071 38.072 34.4739 37.6911 33.4732L35.8219 34.1846C36.0874 34.8821 36.1619 35.6389 36.2368 36.543L38.23 36.3777ZM37.6914 33.4741C36.9977 31.6462 35.786 29.9326 34.8408 28.3995C33.8549 26.8005 33.1043 25.3291 32.9845 23.7405L30.9902 23.891C31.1489 25.9949 32.1338 27.8198 33.1384 29.4492C34.1836 31.1445 35.2172 32.5912 35.8216 34.1837L37.6914 33.4741ZM32.9856 23.7565C32.8805 21.9864 33.1622 21.2835 33.2701 20.0802C33.3807 18.8458 33.1908 17.617 32.1585 15.4809L30.3578 16.3511C31.2831 18.266 31.3474 19.1282 31.2781 19.9016C31.2059 20.7059 30.8734 21.9274 30.9891 23.875L32.9856 23.7565ZM30.3298 15.5442L30.3285 15.5475L32.1851 16.2911L32.1864 16.2878L30.3298 15.5442Z" fill="white" mask="url(#path-38-inside-16_906_520)"/>
<path d="M56.8868 0.634005C54.0403 0.670451 51.383 1.43049 48.9189 2.52514C50.1954 1.85401 51.5658 1.31189 53.0189 0.95513L53.0208 0.954657C55.4256 0.354279 58.078 0.334536 60.4603 0.9789C59.2987 0.738481 58.1012 0.616089 56.8868 0.634005Z" fill="black" stroke="white"/>
<path d="M54.9778 18.3555C54.9022 18.7402 54.8301 19.1066 54.754 19.4569C54.7728 19.3541 54.7909 19.2517 54.8088 19.1499C54.8195 19.0889 54.8302 19.0282 54.8407 18.9677C54.8982 18.6392 54.9543 18.3181 55.0199 17.9974L55.02 17.9974L55.0214 17.9901C55.2744 16.6529 55.7073 15.301 56.4318 14.1032C55.7316 15.3196 55.3216 16.6437 55.0595 17.9413L55.0592 17.9428C55.0314 18.0827 55.0044 18.2202 54.9778 18.3555Z" fill="black" stroke="white"/>
<mask id="path-42-inside-17_906_520" fill="white">
<path d="M68.9737 20.2915C68.59 21.1384 67.4496 21.5668 66.4249 21.6302C65.7548 21.6782 65.069 21.5843 64.4292 21.4236C63.6172 21.1712 63.5909 21.1723 64.4699 21.2663C66.0386 21.4072 67.8779 21.3908 68.9737 20.2915Z"/>
</mask>
<path d="M68.9737 20.2915C68.59 21.1384 67.4496 21.5668 66.4249 21.6302C65.7548 21.6782 65.069 21.5843 64.4292 21.4236C63.6172 21.1712 63.5909 21.1723 64.4699 21.2663C66.0386 21.4072 67.8779 21.3908 68.9737 20.2915Z" fill="black"/>
<path d="M68.9737 20.2915L69.8846 20.7041L68.2654 19.5856L68.9737 20.2915ZM66.4249 21.6302L66.3631 20.632L66.3533 20.6327L66.4249 21.6302ZM64.4292 21.4236L64.1323 22.3785L64.1588 22.3868L64.1857 22.3935L64.4292 21.4236ZM64.4699 21.2663L64.3636 22.2606L64.372 22.2615L64.3804 22.2623L64.4699 21.2663ZM68.0628 19.8789C68.0002 20.0169 67.8396 20.1938 67.5077 20.3528C67.1819 20.5088 66.7702 20.6069 66.3631 20.6321L66.4866 22.6283C67.1043 22.5901 67.7752 22.4422 68.3717 22.1565C68.9621 21.8738 69.5634 21.413 69.8846 20.7041L68.0628 19.8789ZM66.3533 20.6327C65.8194 20.671 65.244 20.5972 64.6727 20.4537L64.1857 22.3935C64.8939 22.5714 65.6902 22.6855 66.4964 22.6276L66.3533 20.6327ZM64.726 20.4687C64.515 20.4031 64.3747 20.36 64.2825 20.3296C64.233 20.3133 64.2241 20.3093 64.2346 20.3136C64.2393 20.3155 64.2502 20.3201 64.2651 20.3272C64.2782 20.3334 64.3064 20.3472 64.3415 20.3684C64.3673 20.3839 64.447 20.4329 64.5313 20.5188C64.5822 20.5706 64.8533 20.8514 64.8112 21.3071C64.7635 21.8229 64.3769 22.0504 64.2669 22.1056C64.1347 22.172 64.0206 22.1911 63.9883 22.1965C63.941 22.2042 63.9044 22.2065 63.8878 22.2073C63.8688 22.2082 63.8549 22.2082 63.8487 22.2082C63.8334 22.208 63.8402 22.2075 63.8924 22.212C63.9878 22.2202 64.1369 22.2364 64.3636 22.2606L64.5762 20.2719C64.3634 20.2492 64.1861 20.2299 64.0647 20.2194C64.0084 20.2146 63.9341 20.2088 63.8646 20.2082C63.8385 20.208 63.7583 20.2074 63.6638 20.223C63.6246 20.2294 63.5054 20.25 63.3696 20.3182C63.2561 20.3752 62.8676 20.6047 62.8197 21.123C62.7773 21.5811 63.0499 21.8647 63.1038 21.9196C63.1912 22.0087 63.2757 22.0611 63.3078 22.0805C63.381 22.1247 63.4475 22.1524 63.4723 22.1626C63.5343 22.1882 63.6029 22.2114 63.6563 22.229C63.7699 22.2665 63.9373 22.3179 64.1323 22.3785L64.726 20.4687ZM64.3804 22.2623C65.1919 22.3352 66.1398 22.3748 67.0535 22.232C67.9692 22.0889 68.932 21.7499 69.6819 20.9974L68.2654 19.5856C67.9196 19.9325 67.4148 20.1513 66.7448 20.256C66.0727 20.361 65.3166 20.3383 64.5594 20.2703L64.3804 22.2623Z" fill="white" mask="url(#path-42-inside-17_906_520)"/>
<mask id="path-44-inside-18_906_520" fill="white">
<path d="M71.2754 15.2246C72.3435 16.065 72.6115 18.2986 72.735 19.493C72.8388 20.4809 72.7482 21.5081 72.7482 22.4883C72.7587 23.4587 72.848 24.4466 73.2028 25.3689C73.5378 26.2956 74.2223 27.0485 75.1551 27.6375C75.611 27.9468 76.1063 28.2396 76.5438 28.6527C76.758 28.8582 76.9564 29.1128 77.0404 29.4122C77.2073 30.2198 76.7619 31.0328 76.2942 31.7169C76.1641 31.9223 75.9316 32.0939 75.8094 32.307C75.7109 32.4906 75.682 32.7037 75.7424 32.9025C75.8843 33.2118 76.26 33.5145 76.3809 33.862C76.8079 35.0466 74.1224 35.5023 73.1397 35.6411C73.953 35.417 75.7503 34.9471 76.0354 34.2412C76.1076 33.7626 75.4323 33.4435 75.2812 33.0075C75.1525 32.6556 75.2169 32.2567 75.4455 31.9398C75.565 31.7824 75.7056 31.648 75.8146 31.4786C76.0932 31.0699 76.3152 30.6164 76.419 30.1662C76.5373 29.7346 76.444 29.3357 76.0603 29.0035C75.7003 28.668 75.2077 28.3828 74.7452 28.0561C73.1423 27.0332 72.4749 25.6465 72.3054 24.0029C72.1596 22.7342 72.354 21.4972 72.4066 20.2503C72.4066 19.8842 72.3843 19.1324 72.3606 18.7652C72.2765 17.7719 72.0952 15.9568 71.2767 15.2246H71.2754Z"/>
</mask>
<path d="M71.2754 15.2246C72.3435 16.065 72.6115 18.2986 72.735 19.493C72.8388 20.4809 72.7482 21.5081 72.7482 22.4883C72.7587 23.4587 72.848 24.4466 73.2028 25.3689C73.5378 26.2956 74.2223 27.0485 75.1551 27.6375C75.611 27.9468 76.1063 28.2396 76.5438 28.6527C76.758 28.8582 76.9564 29.1128 77.0404 29.4122C77.2073 30.2198 76.7619 31.0328 76.2942 31.7169C76.1641 31.9223 75.9316 32.0939 75.8094 32.307C75.7109 32.4906 75.682 32.7037 75.7424 32.9025C75.8843 33.2118 76.26 33.5145 76.3809 33.862C76.8079 35.0466 74.1224 35.5023 73.1397 35.6411C73.953 35.417 75.7503 34.9471 76.0354 34.2412C76.1076 33.7626 75.4323 33.4435 75.2812 33.0075C75.1525 32.6556 75.2169 32.2567 75.4455 31.9398C75.565 31.7824 75.7056 31.648 75.8146 31.4786C76.0932 31.0699 76.3152 30.6164 76.419 30.1662C76.5373 29.7346 76.444 29.3357 76.0603 29.0035C75.7003 28.668 75.2077 28.3828 74.7452 28.0561C73.1423 27.0332 72.4749 25.6465 72.3054 24.0029C72.1596 22.7342 72.354 21.4972 72.4066 20.2503C72.4066 19.8842 72.3843 19.1324 72.3606 18.7652C72.2765 17.7719 72.0952 15.9568 71.2767 15.2246H71.2754Z" fill="black"/>
<path d="M71.2754 15.2246V14.2246H68.387L70.6571 16.0105L71.2754 15.2246ZM72.735 19.493L71.7403 19.5959L71.7405 19.5975L72.735 19.493ZM72.7482 22.4883H71.7481L71.7482 22.4992L72.7482 22.4883ZM73.2028 25.3689L74.1432 25.0289L74.1397 25.0194L74.1361 25.0099L73.2028 25.3689ZM75.1551 27.6375L75.7165 26.81L75.7029 26.8007L75.689 26.792L75.1551 27.6375ZM76.5438 28.6527L77.2361 27.9311L77.2303 27.9256L76.5438 28.6527ZM77.0404 29.4122L78.0198 29.2099L78.0127 29.1756L78.0032 29.1418L77.0404 29.4122ZM76.2942 31.7169L75.4687 31.1525L75.4587 31.167L75.4493 31.182L76.2942 31.7169ZM75.8094 32.307L74.9419 31.8096L74.9349 31.8217L74.9283 31.8341L75.8094 32.307ZM75.7424 32.9025L74.7856 33.1933L74.8053 33.258L74.8335 33.3196L75.7424 32.9025ZM76.3809 33.862L75.4363 34.1905L75.4402 34.2011L76.3809 33.862ZM73.1397 35.6411L72.8741 34.677L73.2795 36.6312L73.1397 35.6411ZM76.0354 34.2412L76.9626 34.6157L77.0066 34.5067L77.0242 34.3905L76.0354 34.2412ZM75.2812 33.0075L76.2261 32.68L76.2233 32.6719L76.2203 32.6638L75.2812 33.0075ZM75.4455 31.9398L74.6492 31.3348L74.6417 31.3447L74.6345 31.3548L75.4455 31.9398ZM75.8146 31.4786L74.9883 30.9155L74.9809 30.9263L74.9738 30.9373L75.8146 31.4786ZM76.419 30.1662L75.4545 29.902L75.4491 29.9217L75.4446 29.9416L76.419 30.1662ZM76.0603 29.0035L75.3786 29.7351L75.3919 29.7475L75.4057 29.7595L76.0603 29.0035ZM74.7452 28.0561L75.3222 27.2393L75.303 27.2257L75.2831 27.2131L74.7452 28.0561ZM72.3054 24.0029L73.3002 23.9003L73.2989 23.8887L72.3054 24.0029ZM72.4066 20.2503L73.4057 20.2924L73.4066 20.2714V20.2503H72.4066ZM72.3606 18.7652L73.3585 18.7009L73.3579 18.6909L73.357 18.6809L72.3606 18.7652ZM71.2767 15.2246L71.9434 14.4793L71.6587 14.2246H71.2767V15.2246ZM70.6571 16.0105C70.9204 16.2177 71.1871 16.708 71.393 17.4828C71.587 18.213 71.6789 19.0013 71.7403 19.5959L73.7297 19.3902C73.6677 18.7903 73.5638 17.8646 73.3259 16.9692C73.0999 16.1186 72.6985 15.0718 71.8937 14.4387L70.6571 16.0105ZM71.7405 19.5975C71.8375 20.5206 71.7482 21.3822 71.7482 22.4883H73.7482C73.7482 21.634 73.8402 20.4412 73.7296 19.3885L71.7405 19.5975ZM71.7482 22.4992C71.7592 23.5127 71.8512 24.6406 72.2694 25.7279L74.1361 25.0099C73.8448 24.2526 73.7582 23.4047 73.7481 22.4775L71.7482 22.4992ZM72.2623 25.7089C72.6911 26.8948 73.5513 27.8075 74.6212 28.4831L75.689 26.792C74.8933 26.2896 74.3845 25.6963 74.1432 25.0289L72.2623 25.7089ZM74.5937 28.4651C75.1153 28.8189 75.4971 29.0398 75.8573 29.3798L77.2303 27.9256C76.7155 27.4395 76.1067 27.0747 75.7165 26.81L74.5937 28.4651ZM75.8515 29.3743C76.0043 29.5209 76.0621 29.6269 76.0777 29.6826L78.0032 29.1418C77.8507 28.5986 77.5116 28.1954 77.2361 27.9311L75.8515 29.3743ZM76.0611 29.6145C76.1339 29.9668 75.946 30.4544 75.4687 31.1525L77.1197 32.2813C77.5778 31.6112 78.2807 30.4727 78.0198 29.2099L76.0611 29.6145ZM75.4493 31.182C75.4537 31.175 75.4499 31.1822 75.4261 31.2096C75.4004 31.2392 75.372 31.2692 75.3209 31.3235C75.2416 31.4076 75.0706 31.5851 74.9419 31.8096L76.6769 32.8044C76.6704 32.8157 76.6767 32.8009 76.7768 32.6947C76.844 32.6233 77.0117 32.4531 77.1391 32.2518L75.4493 31.182ZM74.9283 31.8341C74.7174 32.2269 74.6399 32.7139 74.7856 33.1933L76.6992 32.6118C76.724 32.6934 76.7043 32.7542 76.6905 32.7799L74.9283 31.8341ZM74.8335 33.3196C74.9101 33.4865 75.0054 33.6263 75.0805 33.728C75.1536 33.827 75.2381 33.9297 75.29 33.9943C75.4284 34.1665 75.4408 34.2031 75.4364 34.1905L77.3254 33.5335C77.2001 33.1734 76.9642 32.8849 76.849 32.7415C76.7742 32.6484 76.7306 32.5958 76.6895 32.5401C76.6505 32.4872 76.6457 32.4733 76.6513 32.4855L74.8335 33.3196ZM75.4402 34.2011C75.4296 34.1719 75.4157 34.0978 75.44 34.0091C75.4612 33.9314 75.4951 33.9034 75.4783 33.9206C75.4251 33.9749 75.2629 34.0848 74.9361 34.208C74.3074 34.4451 73.4863 34.5822 72.9999 34.6509L73.2795 36.6312C73.7758 36.5611 74.7888 36.401 75.6418 36.0794C76.0558 35.9233 76.5464 35.6884 76.9073 35.3198C77.0975 35.1256 77.2789 34.8665 77.3691 34.5367C77.4624 34.1957 77.4389 33.8482 77.3217 33.5229L75.4402 34.2011ZM73.4053 36.6051C73.7957 36.4976 74.5071 36.3092 75.1557 36.0508C75.4801 35.9216 75.8276 35.7601 76.1299 35.5595C76.4098 35.3738 76.7781 35.0725 76.9626 34.6157L75.1081 33.8667C75.1501 33.7629 75.1868 33.785 75.0241 33.893C74.8838 33.9861 74.6777 34.0884 74.4155 34.1929C73.8908 34.4019 73.2969 34.5605 72.8741 34.677L73.4053 36.6051ZM77.0242 34.3905C77.1393 33.6277 76.6308 33.0973 76.4778 32.9311C76.3437 32.7854 76.305 32.7522 76.2367 32.6714C76.1828 32.6076 76.2043 32.6171 76.2261 32.68L74.3364 33.3349C74.4337 33.6158 74.5962 33.8287 74.7092 33.9624C74.8077 34.0789 74.9618 34.2372 75.0063 34.2856C75.0854 34.3715 75.0945 34.3926 75.087 34.3786C75.0697 34.3461 75.0245 34.2379 75.0466 34.0919L77.0242 34.3905ZM76.2203 32.6638C76.2146 32.6481 76.2062 32.5945 76.2565 32.5248L74.6345 31.3548C74.2275 31.9189 74.0904 32.6631 74.3421 33.3511L76.2203 32.6638ZM76.2417 32.5448C76.2783 32.4966 76.3124 32.459 76.3937 32.364C76.4631 32.2829 76.5624 32.1645 76.6555 32.02L74.9738 30.9373C74.9578 30.9622 74.9323 30.9957 74.8743 31.0635C74.8282 31.1174 74.7322 31.2256 74.6492 31.3348L76.2417 32.5448ZM76.641 32.0418C76.9689 31.5607 77.2546 30.9933 77.3934 30.3909L75.4446 29.9416C75.3759 30.2395 75.2175 30.5792 74.9883 30.9155L76.641 32.0418ZM77.3835 30.4304C77.4815 30.0725 77.5055 29.674 77.3884 29.2695C77.2705 28.8622 77.0303 28.5206 76.7149 28.2475L75.4057 29.7595C75.4418 29.7907 75.458 29.8122 75.464 29.8211C75.4694 29.8292 75.4686 29.8301 75.4673 29.8256C75.4632 29.8115 75.4747 29.8283 75.4545 29.902L77.3835 30.4304ZM76.7421 28.2719C76.5048 28.0508 76.2406 27.8612 76.0045 27.7003C75.7398 27.5198 75.5513 27.4012 75.3222 27.2393L74.1682 28.8728C74.4016 29.0377 74.6906 29.225 74.8778 29.3527C75.0938 29.4999 75.2558 29.6207 75.3786 29.7351L76.7421 28.2719ZM75.2831 27.2131C73.9783 26.3804 73.4436 25.2919 73.3002 23.9003L71.3107 24.1055C71.5062 26.0011 72.3064 27.686 74.2073 28.899L75.2831 27.2131ZM73.2989 23.8887C73.1647 22.7215 73.3467 21.6917 73.4057 20.2924L71.4075 20.2082C71.3613 21.3027 71.1545 22.747 71.312 24.1171L73.2989 23.8887ZM73.4066 20.2503C73.4066 19.865 73.3837 19.0916 73.3585 18.7009L71.3627 18.8295C71.3848 19.1732 71.4066 19.9034 71.4066 20.2503H73.4066ZM73.357 18.6809C73.3148 18.1822 73.244 17.4151 73.0673 16.6671C72.9008 15.9623 72.5951 15.0622 71.9434 14.4793L70.61 15.9699C70.7769 16.1192 70.9711 16.4928 71.1209 17.1269C71.2605 17.7178 71.3223 18.3549 71.3642 18.8496L73.357 18.6809ZM71.2767 14.2246H71.2754V16.2246H71.2767V14.2246Z" fill="white" mask="url(#path-44-inside-18_906_520)"/>
<mask id="path-46-inside-19_906_520" fill="white">
<path d="M58.2495 39.0983C59.9969 38.5409 62.1332 38.7606 63.5074 39.8763C63.7216 40.0643 63.9502 40.2402 64.2379 40.3571C66.587 41.2609 69.6627 41.4051 72.2128 41.0216C72.892 40.9166 73.5581 40.756 74.2045 40.5385C74.2663 40.5178 74.3372 40.5429 74.3622 40.5943C74.3845 40.6413 74.3622 40.6937 74.311 40.7188C71.7937 41.91 68.7009 42.1165 65.8828 41.6761C64.9868 41.5111 64.0211 41.2532 63.2854 40.7221C63.154 40.6303 63.016 40.4861 62.9004 40.3779C62.6836 40.1823 62.4406 40.0074 62.1752 39.8588C61.1136 39.26 59.6724 39.1081 58.3388 39.3223C58.1746 39.3583 58.0826 39.1562 58.2495 39.0993V39.0983Z"/>
</mask>
<path d="M58.2495 39.0983C59.9969 38.5409 62.1332 38.7606 63.5074 39.8763C63.7216 40.0643 63.9502 40.2402 64.2379 40.3571C66.587 41.2609 69.6627 41.4051 72.2128 41.0216C72.892 40.9166 73.5581 40.756 74.2045 40.5385C74.2663 40.5178 74.3372 40.5429 74.3622 40.5943C74.3845 40.6413 74.3622 40.6937 74.311 40.7188C71.7937 41.91 68.7009 42.1165 65.8828 41.6761C64.9868 41.5111 64.0211 41.2532 63.2854 40.7221C63.154 40.6303 63.016 40.4861 62.9004 40.3779C62.6836 40.1823 62.4406 40.0074 62.1752 39.8588C61.1136 39.26 59.6724 39.1081 58.3388 39.3223C58.1746 39.3583 58.0826 39.1562 58.2495 39.0993V39.0983Z" fill="black"/>
<path d="M58.2495 39.0983L57.9456 38.1455L57.2495 38.3676V39.0983H58.2495ZM63.5074 39.8763L64.1671 39.1247L64.1526 39.1121L64.1377 39.1L63.5074 39.8763ZM64.2379 40.3571L63.8614 41.2836L63.8701 41.2871L63.8788 41.2905L64.2379 40.3571ZM72.2128 41.0216L72.3615 42.0104L72.3654 42.0098L72.2128 41.0216ZM74.2045 40.5385L73.8858 39.5907L73.8857 39.5907L74.2045 40.5385ZM74.3622 40.5943L75.2654 40.165L75.2616 40.1571L74.3622 40.5943ZM74.311 40.7188L74.7387 41.6229L74.7514 41.6167L74.311 40.7188ZM65.8828 41.6761L65.7017 42.6596L65.715 42.662L65.7284 42.6641L65.8828 41.6761ZM63.2854 40.7221L63.8707 39.9113L63.8644 39.9068L63.8581 39.9024L63.2854 40.7221ZM62.9004 40.3779L63.5837 39.6477L63.5771 39.6415L63.5703 39.6355L62.9004 40.3779ZM62.1752 39.8588L61.6839 40.7298L61.6866 40.7313L62.1752 39.8588ZM58.3388 39.3223L58.1803 38.3349L58.1522 38.3394L58.1244 38.3455L58.3388 39.3223ZM58.2495 39.0993L58.5719 40.046L59.2495 39.8152V39.0993H58.2495ZM58.5534 40.051C60.0589 39.5708 61.8233 39.7971 62.8771 40.6527L64.1377 39.1C62.443 37.7241 59.9348 37.5111 57.9456 38.1455L58.5534 40.051ZM62.8478 40.6279C63.0911 40.8415 63.4193 41.1039 63.8614 41.2836L64.6144 39.4307C64.481 39.3765 64.352 39.287 64.1671 39.1247L62.8478 40.6279ZM63.8788 41.2905C66.4326 42.2729 69.6925 42.4119 72.3615 42.0104L72.0641 40.0327C69.6328 40.3984 66.7414 40.2488 64.597 39.4238L63.8788 41.2905ZM72.3654 42.0098C73.0994 41.8965 73.8212 41.7226 74.5234 41.4863L73.8857 39.5907C73.2951 39.7894 72.6847 39.9368 72.0602 40.0333L72.3654 42.0098ZM74.5233 41.4864C74.3325 41.5505 74.1359 41.543 73.9637 41.4821C73.7947 41.4223 73.5865 41.286 73.4628 41.0314L75.2616 40.1571C74.974 39.5654 74.3253 39.4429 73.8858 39.5907L74.5233 41.4864ZM73.459 41.0236C73.3459 40.7856 73.3436 40.5147 73.4408 40.281C73.5344 40.0555 73.7018 39.9038 73.8706 39.821L74.7514 41.6167C75.193 41.4 75.5683 40.8023 75.2654 40.165L73.459 41.0236ZM73.8832 39.8149C71.5974 40.8966 68.7203 41.1074 66.0372 40.6881L65.7284 42.6641C68.6816 43.1256 71.99 42.9234 74.7387 41.6228L73.8832 39.8149ZM66.0639 40.6927C65.1948 40.5326 64.4163 40.3052 63.8707 39.9113L62.7001 41.5329C63.6259 42.2012 64.7788 42.4896 65.7017 42.6596L66.0639 40.6927ZM63.8581 39.9024C63.8582 39.9025 63.856 39.9009 63.8513 39.8973C63.8467 39.8936 63.8403 39.8885 63.8322 39.8816C63.8156 39.8675 63.7952 39.8493 63.7696 39.8254C63.7438 39.8013 63.7172 39.7757 63.6855 39.7451C63.656 39.7166 63.6195 39.6813 63.5837 39.6477L62.2172 41.1081C62.265 41.1528 62.5033 41.3956 62.7126 41.5419L63.8581 39.9024ZM63.5703 39.6355C63.2977 39.3894 62.9937 39.1711 62.6638 38.9863L61.6866 40.7313C61.8875 40.8438 62.0696 40.9751 62.2305 41.1203L63.5703 39.6355ZM62.6665 38.9879C61.3533 38.2471 59.6667 38.0962 58.1803 38.3349L58.4974 40.3096C59.678 40.12 60.8739 40.2729 61.6839 40.7298L62.6665 38.9879ZM58.1244 38.3455C58.5011 38.2628 58.9198 38.4545 59.0898 38.8533C59.1749 39.0527 59.1992 39.3216 59.0766 39.5851C58.951 39.8551 58.7321 39.9914 58.5719 40.046L57.9271 38.1527C57.6835 38.2357 57.4135 38.4186 57.2633 38.7413C57.1162 39.0576 57.1425 39.3854 57.2502 39.638C57.4656 40.143 58.0123 40.4178 58.5533 40.299L58.1244 38.3455ZM59.2495 39.0993V39.0983H57.2495V39.0993H59.2495Z" fill="white" mask="url(#path-46-inside-19_906_520)"/>
<path d="M55.0645 35.5613C54.8388 35.024 54.5198 34.5249 54.0989 34.0898C54.2388 34.2127 54.3693 34.3419 54.4906 34.4766C55.5666 35.6724 55.9784 37.3842 55.5891 39.3096C55.2072 41.1904 54.2027 43.0027 52.5181 44.3205L52.5109 44.3261L52.5039 44.332C51.2664 45.3752 49.8428 46.3282 48.413 47.1933L48.413 47.1933L48.4106 47.1948C48.0019 47.4452 47.5954 47.7007 47.1927 47.961C47.523 47.7293 47.8602 47.5005 48.2012 47.2712C48.316 47.194 48.4313 47.1167 48.5468 47.0392C49.2271 46.583 49.9169 46.1204 50.5699 45.6361L50.5721 45.6344C51.3151 45.0771 52.0509 44.4919 52.7448 43.8824L52.7504 43.8776L52.7558 43.8725C54.1002 42.6194 54.952 40.9819 55.3149 39.3384C55.5968 38.1123 55.5667 36.7565 55.0645 35.5613Z" fill="black" stroke="white"/>
<mask id="path-49-inside-20_906_520" fill="white">
<path d="M41.8496 40.1474C42.8323 39.5278 44.2263 39.4262 45.3588 39.837C48.512 41.0074 50.0649 44.8245 51.0201 47.3991C51.6849 49.3475 51.8478 51.5298 50.8545 53.4291C49.973 55.3272 48.0285 56.9041 45.6439 57.4002C48.5015 56.5096 50.3421 54.323 50.8296 51.8729C51.116 50.425 50.8637 48.9563 50.3881 47.5444C49.5118 45.1512 48.0338 41.2828 45.2235 40.084C44.1869 39.6305 42.8665 39.6513 41.8509 40.1474H41.8496Z"/>
</mask>
<path d="M41.8496 40.1474C42.8323 39.5278 44.2263 39.4262 45.3588 39.837C48.512 41.0074 50.0649 44.8245 51.0201 47.3991C51.6849 49.3475 51.8478 51.5298 50.8545 53.4291C49.973 55.3272 48.0285 56.9041 45.6439 57.4002C48.5015 56.5096 50.3421 54.323 50.8296 51.8729C51.116 50.425 50.8637 48.9563 50.3881 47.5444C49.5118 45.1512 48.0338 41.2828 45.2235 40.084C44.1869 39.6305 42.8665 39.6513 41.8509 40.1474H41.8496Z" fill="black"/>
<path d="M41.8496 40.1474L41.3163 39.3015L38.3885 41.1474H41.8496V40.1474ZM45.3588 39.837L45.7068 38.8995L45.6999 38.897L45.3588 39.837ZM51.0201 47.3991L51.9665 47.0762L51.9622 47.0637L51.9576 47.0513L51.0201 47.3991ZM50.8545 53.4291L49.9684 52.9656L49.9575 52.9865L49.9476 53.0078L50.8545 53.4291ZM45.6439 57.4002L45.3464 56.4455L45.8476 58.3793L45.6439 57.4002ZM50.8296 51.8729L51.8104 52.0681L51.8106 52.067L50.8296 51.8729ZM50.3881 47.5444L51.3358 47.2252L51.3316 47.2128L51.3272 47.2006L50.3881 47.5444ZM45.2235 40.084L44.8227 41.0002L44.8311 41.0038L45.2235 40.084ZM41.8509 40.1474V41.1474H42.0821L42.2899 41.0459L41.8509 40.1474ZM42.3829 40.9933C43.0757 40.5565 44.1421 40.4594 45.0178 40.7771L45.6999 38.897C44.3105 38.3929 42.589 38.499 41.3163 39.3015L42.3829 40.9933ZM45.0108 40.7745C46.3003 41.2531 47.3268 42.2983 48.1691 43.6269C49.0099 44.953 49.6067 46.4642 50.0825 47.7469L51.9576 47.0513C51.4784 45.7594 50.8211 44.0747 49.8583 42.556C48.8971 41.0399 47.5705 39.5913 45.7068 38.8995L45.0108 40.7745ZM50.0736 47.722C50.6888 49.525 50.788 51.3984 49.9684 52.9656L51.7407 53.8925C52.9075 51.6613 52.6809 49.1701 51.9665 47.0762L50.0736 47.722ZM49.9476 53.0078C49.206 54.6047 47.5317 55.9861 45.4402 56.4212L45.8476 58.3793C48.5253 57.8222 50.74 56.0498 51.7615 53.8503L49.9476 53.0078ZM45.9415 58.3549C49.1394 57.3582 51.2496 54.8868 51.8104 52.0681L49.8488 51.6778C49.4347 53.7592 47.8636 55.661 45.3464 56.4455L45.9415 58.3549ZM51.8106 52.067C52.1439 50.382 51.8407 48.7242 51.3358 47.2252L49.4405 47.8637C49.8867 49.1884 50.0881 50.468 49.8486 51.6789L51.8106 52.067ZM51.3272 47.2006C50.8897 46.0059 50.2746 44.3629 49.3937 42.8605C48.5209 41.3719 47.3112 39.8874 45.6159 39.1642L44.8311 41.0038C45.9461 41.4794 46.8805 42.5285 47.6684 43.8721C48.4482 45.202 49.0103 46.6898 49.4491 47.8883L51.3272 47.2006ZM45.6243 39.1678C44.3229 38.5985 42.6954 38.6219 41.412 39.2489L42.2899 41.0459C43.0376 40.6806 44.0509 40.6625 44.8227 41.0002L45.6243 39.1678ZM41.8509 39.1474H41.8496V41.1474H41.8509V39.1474Z" fill="white" mask="url(#path-49-inside-20_906_520)"/>
<path d="M54.2883 53.5436C53.7919 54.3344 53.073 55.0679 52.1223 55.6954L52.1222 55.6953L52.1109 55.7031C51.7135 55.9814 51.0568 56.3425 50.5657 56.6125C50.5476 56.6224 50.5297 56.6323 50.512 56.642C47.875 58.07 45.2076 59.8043 43.7018 62.2973C43.6703 62.3484 43.6394 62.3995 43.6092 62.4508C43.7353 62.1944 43.8778 61.9417 44.037 61.6936L44.0383 61.6915C45.0928 60.0295 46.766 58.6555 48.6519 57.5311L48.6519 57.5312L48.6572 57.5279C49.1589 57.2202 49.6965 56.9355 50.2501 56.6428L50.2696 56.6325C50.8116 56.346 51.369 56.0513 51.8933 55.731C52.9133 55.1108 53.7091 54.37 54.2883 53.5436Z" fill="black" stroke="white"/>
<path d="M28.1854 16.497C28.9427 17.3102 29.6127 18.1303 29.9923 19.0044C29.6852 18.5381 29.3232 18.1082 28.9712 17.7293C28.8824 17.6283 28.7229 17.4699 28.6242 17.3718C28.6047 17.3525 28.5875 17.3354 28.5738 17.3217L28.5662 17.3141L28.5583 17.3069C27.979 16.7751 27.4636 16.222 27.0801 15.6193C25.2972 12.8119 25.7664 9.29968 27.4767 6.43039C28.5823 4.61083 30.4271 3.10079 32.622 2.13119C30.6129 3.16187 28.9352 4.65211 27.9128 6.45239L27.9128 6.45238L27.9104 6.45672C26.2306 9.48449 25.6795 13.4813 28.1666 16.4757L28.1757 16.4866L28.1854 16.497Z" fill="black" stroke="white"/>
<mask id="path-53-inside-21_906_520" fill="white">
<path d="M64.0144 19.9757C62.6494 20.7614 60.8705 20.5953 59.3228 20.3822C56.2182 19.9265 53.2122 18.8905 50.0367 19.0217C48.4956 19.0807 47.0872 19.6282 45.9152 20.4357C43.9524 21.7471 42.7726 23.725 42.2326 25.7423C41.9974 26.6864 41.8844 27.6612 41.9712 28.625C42.1879 30.1058 42.343 31.6914 41.6164 33.1011C41.3156 33.7218 40.9109 34.2999 40.4629 34.8517C40.836 34.2704 41.1724 33.6671 41.4102 33.0399C41.9133 31.7854 41.782 30.462 41.5245 29.1736C41.3721 28.5125 41.3353 27.8197 41.3668 27.1498C41.5271 23.772 43.6739 20.2259 47.5444 18.8534C52.8365 16.9356 60.2122 21.7307 64.0144 19.9768V19.9757Z"/>
</mask>
<path d="M64.0144 19.9757C62.6494 20.7614 60.8705 20.5953 59.3228 20.3822C56.2182 19.9265 53.2122 18.8905 50.0367 19.0217C48.4956 19.0807 47.0872 19.6282 45.9152 20.4357C43.9524 21.7471 42.7726 23.725 42.2326 25.7423C41.9974 26.6864 41.8844 27.6612 41.9712 28.625C42.1879 30.1058 42.343 31.6914 41.6164 33.1011C41.3156 33.7218 40.9109 34.2999 40.4629 34.8517C40.836 34.2704 41.1724 33.6671 41.4102 33.0399C41.9133 31.7854 41.782 30.462 41.5245 29.1736C41.3721 28.5125 41.3353 27.8197 41.3668 27.1498C41.5271 23.772 43.6739 20.2259 47.5444 18.8534C52.8365 16.9356 60.2122 21.7307 64.0144 19.9768V19.9757Z" fill="black"/>
<path d="M64.0144 19.9757H65.0144V18.2463L63.5156 19.109L64.0144 19.9757ZM59.3228 20.3822L59.1776 21.3716L59.1864 21.3728L59.3228 20.3822ZM50.0367 19.0217L50.075 20.0209L50.078 20.0208L50.0367 19.0217ZM45.9152 20.4357L46.4708 21.2672L46.4767 21.2632L46.4827 21.2592L45.9152 20.4357ZM42.2326 25.7423L41.2666 25.4837L41.2644 25.4921L41.2623 25.5006L42.2326 25.7423ZM41.9712 28.625L40.9752 28.7146L40.9777 28.7424L40.9817 28.7699L41.9712 28.625ZM41.6164 33.1011L40.7275 32.643L40.7219 32.6539L40.7166 32.6649L41.6164 33.1011ZM40.4629 34.8517L39.6213 34.3116L41.2393 35.482L40.4629 34.8517ZM41.4102 33.0399L40.482 32.6676L40.4785 32.6765L40.4751 32.6854L41.4102 33.0399ZM41.5245 29.1736L42.5051 28.9776L42.5022 28.9633L42.4989 28.949L41.5245 29.1736ZM41.3668 27.1498L40.3679 27.1024L40.3679 27.1028L41.3668 27.1498ZM47.5444 18.8534L47.8786 19.7959L47.8851 19.7936L47.5444 18.8534ZM64.0144 19.9768L64.4333 20.8848L65.0144 20.6167V19.9768H64.0144ZM63.5156 19.109C62.4888 19.7 61.0529 19.611 59.4592 19.3915L59.1864 21.3728C60.6881 21.5796 62.81 21.8228 64.5133 20.8424L63.5156 19.109ZM59.468 19.3928C57.9427 19.1689 56.4996 18.8127 54.8977 18.5004C53.3365 18.196 51.7005 17.9521 49.9954 18.0225L50.078 20.0208C51.5484 19.9601 53.0032 20.1686 54.515 20.4634C55.9861 20.7502 57.5983 21.1398 59.1776 21.3716L59.468 19.3928ZM49.9984 18.0224C48.241 18.0897 46.6522 18.7135 45.3478 19.6123L46.4827 21.2592C47.5222 20.5429 48.7502 20.0717 50.075 20.0209L49.9984 18.0224ZM45.3597 19.6042C43.1576 21.0754 41.8566 23.2795 41.2666 25.4837L43.1986 26.0009C43.6885 24.1705 44.7472 22.4187 46.4708 21.2672L45.3597 19.6042ZM41.2623 25.5006C41.0069 26.5258 40.8762 27.6149 40.9752 28.7146L42.9671 28.5354C42.8926 27.7075 42.988 26.8471 43.203 25.984L41.2623 25.5006ZM40.9817 28.7699C41.2005 30.2646 41.2913 31.5492 40.7275 32.643L42.5053 33.5592C43.3947 31.8336 43.1753 29.9469 42.9606 28.4802L40.9817 28.7699ZM40.7166 32.6649C40.4614 33.1913 40.1075 33.7029 39.6865 34.2214L41.2393 35.482C41.7143 34.8968 42.1697 34.2523 42.5163 33.5373L40.7166 32.6649ZM41.3045 35.3919C41.6975 34.7795 42.0734 34.1113 42.3452 33.3944L40.4751 32.6854C40.2713 33.223 39.9746 33.7612 39.6213 34.3116L41.3045 35.3919ZM42.3383 33.4122C42.9552 31.8741 42.7705 30.3058 42.5051 28.9776L40.5439 29.3696C40.7934 30.6183 40.8715 31.6967 40.482 32.6676L42.3383 33.4122ZM42.4989 28.949C42.3722 28.3993 42.3372 27.8017 42.3657 27.1968L40.3679 27.1028C40.3333 27.8376 40.3719 28.6257 40.55 29.3982L42.4989 28.949ZM42.3657 27.1972C42.5087 24.1825 44.4295 21.019 47.8786 19.7959L47.2102 17.9109C42.9183 19.4329 40.5454 23.3615 40.3679 27.1024L42.3657 27.1972ZM47.8851 19.7936C49.0144 19.3843 50.3014 19.3172 51.7143 19.4613C53.13 19.6057 54.6032 19.9533 56.0972 20.3242C57.5617 20.6876 59.0719 21.0808 60.4502 21.2629C61.8209 21.444 63.224 21.4426 64.4333 20.8848L63.5956 19.0687C62.9038 19.3878 61.9591 19.4448 60.7121 19.2801C59.4727 19.1163 58.0953 18.7594 56.579 18.3831C55.0923 18.0141 53.4917 17.6322 51.9172 17.4716C50.3399 17.3108 48.7204 17.3636 47.2037 17.9132L47.8851 19.7936ZM65.0144 19.9768V19.9757H63.0144V19.9768H65.0144Z" fill="white" mask="url(#path-53-inside-21_906_520)"/>
<mask id="path-55-inside-22_906_520" fill="white">
<path d="M49.1109 64.0386C48.973 64.5795 48.207 64.8407 47.6 64.7882C47.3924 64.7696 47.1914 64.7227 47.0088 64.6385C47.1113 64.609 47.2085 64.5948 47.3057 64.5795C47.9508 64.4702 48.563 64.3664 49.1122 64.0386H49.1109Z"/>
</mask>
<path d="M49.1109 64.0386C48.973 64.5795 48.207 64.8407 47.6 64.7882C47.3924 64.7696 47.1914 64.7227 47.0088 64.6385C47.1113 64.609 47.2085 64.5948 47.3057 64.5795C47.9508 64.4702 48.563 64.3664 49.1122 64.0386H49.1109Z" fill="black"/>
<path d="M49.1109 64.0386V63.0386H48.3339L48.1419 63.7915L49.1109 64.0386ZM47.6 64.7882L47.5109 65.7842L47.5139 65.7845L47.6 64.7882ZM47.0088 64.6385L46.7321 63.6775L44.1482 64.4215L46.5903 65.5467L47.0088 64.6385ZM47.3057 64.5795L47.4612 65.5674L47.4727 65.5655L47.3057 64.5795ZM49.1122 64.0386L49.6248 64.8972L52.7383 63.0386H49.1122V64.0386ZM48.1419 63.7915C48.1782 63.6494 48.2614 63.6616 48.1256 63.7219C48.0705 63.7464 47.9979 63.7685 47.9143 63.7819C47.831 63.7953 47.7515 63.7976 47.6861 63.7919L47.5139 65.7845C47.9763 65.8245 48.4898 65.7485 48.9371 65.5499C49.3705 65.3575 49.9057 64.9687 50.0799 64.2857L48.1419 63.7915ZM47.6891 63.7922C47.5713 63.7817 47.4859 63.7573 47.4273 63.7303L46.5903 65.5467C46.8969 65.688 47.2135 65.7576 47.5109 65.7842L47.6891 63.7922ZM47.2855 65.5995C47.3161 65.5906 47.3467 65.5854 47.4612 65.5673L47.1503 63.5917C47.0703 63.6042 46.9064 63.6274 46.7321 63.6775L47.2855 65.5995ZM47.4727 65.5655C48.0858 65.4616 48.8883 65.3369 49.6248 64.8972L48.5996 63.1799C48.2378 63.3959 47.8158 63.4788 47.1387 63.5935L47.4727 65.5655ZM49.1122 63.0386H49.1109V65.0386H49.1122V63.0386Z" fill="white" mask="url(#path-55-inside-22_906_520)"/>
<mask id="path-57-inside-23_906_520" fill="white">
<path d="M43.9164 65.8364C43.9716 66.1774 43.9282 66.5041 43.9164 66.833C43.9124 66.9412 43.9085 67.0472 43.9164 67.1685C43.806 67.0855 43.7469 66.9686 43.7101 66.8527C43.6155 66.5074 43.6838 66.1337 43.9164 65.8364Z"/>
</mask>
<path d="M43.9164 65.8364C43.9716 66.1774 43.9282 66.5041 43.9164 66.833C43.9124 66.9412 43.9085 67.0472 43.9164 67.1685C43.806 67.0855 43.7469 66.9686 43.7101 66.8527C43.6155 66.5074 43.6838 66.1337 43.9164 65.8364Z" fill="black"/>
<path d="M43.9164 65.8364L44.9035 65.6767L44.5381 63.4188L43.1288 65.2202L43.9164 65.8364ZM43.9164 66.833L44.9157 66.8695L44.9157 66.869L43.9164 66.833ZM43.9164 67.1685L43.3151 67.9675L45.0555 69.2773L44.9143 67.1037L43.9164 67.1685ZM43.7101 66.8527L42.7456 67.1169L42.7509 67.1363L42.757 67.1554L43.7101 66.8527ZM42.9292 65.9962C42.9634 66.2075 42.9333 66.3453 42.917 66.7971L44.9157 66.869C44.9231 66.6629 44.9797 66.1472 44.9035 65.6767L42.9292 65.9962ZM42.917 66.7966C42.9133 66.9006 42.9069 67.0546 42.9185 67.2334L44.9143 67.1037C44.9101 67.0399 44.9116 66.9819 44.9157 66.8695L42.917 66.7966ZM44.5177 66.3695C44.6398 66.4614 44.6682 66.5657 44.6632 66.55L42.757 67.1554C42.8256 67.3714 42.9722 67.7095 43.3151 67.9675L44.5177 66.3695ZM44.6746 66.5885C44.6679 66.5641 44.6675 66.5411 44.6716 66.5203C44.6756 66.5002 44.6847 66.4772 44.704 66.4526L43.1288 65.2202C42.6985 65.7703 42.5688 66.4713 42.7456 67.1169L44.6746 66.5885Z" fill="white" mask="url(#path-57-inside-23_906_520)"/>
<mask id="path-59-inside-24_906_520" fill="white">
<path d="M43.0802 36.6865C43.0802 36.6865 42.3681 37.3083 42.2998 37.7312L43.0802 36.6865Z"/>
</mask>
<path d="M43.0802 36.6865C43.0802 36.6865 42.3681 37.3083 42.2998 37.7312L43.0802 36.6865Z" fill="white"/>
<path d="M43.0802 36.6865C42.4225 35.9333 42.4224 35.9334 42.4223 35.9335C42.4222 35.9335 42.4221 35.9336 42.422 35.9337C42.4219 35.9338 42.4217 35.934 42.4215 35.9341C42.4211 35.9345 42.4207 35.9348 42.4202 35.9352C42.4193 35.936 42.4182 35.937 42.4169 35.9381C42.4144 35.9404 42.4112 35.9432 42.4073 35.9467C42.3996 35.9535 42.3893 35.9628 42.3767 35.9742C42.3516 35.997 42.3173 36.0288 42.2765 36.0678C42.196 36.1448 42.0858 36.2546 41.9707 36.3831C41.858 36.509 41.7261 36.6688 41.6115 36.8455C41.5078 37.0055 41.3626 37.2624 41.3126 37.5717L43.287 37.8907C43.2712 37.9886 43.2406 38.0092 43.2896 37.9337C43.3277 37.8749 43.3867 37.7999 43.4606 37.7174C43.532 37.6376 43.6041 37.5655 43.6592 37.5128C43.6863 37.4869 43.7081 37.4667 43.7223 37.4539C43.7293 37.4475 43.7344 37.443 43.7371 37.4406C43.7385 37.4393 43.7392 37.4386 43.7394 37.4385C43.7395 37.4384 43.7394 37.4385 43.7392 37.4387C43.739 37.4388 43.7389 37.439 43.7387 37.4391C43.7386 37.4392 43.7385 37.4393 43.7383 37.4394C43.7383 37.4395 43.7382 37.4396 43.7382 37.4396C43.7381 37.4397 43.7379 37.4398 43.0802 36.6865Z" fill="white" mask="url(#path-59-inside-24_906_520)"/>
<mask id="path-61-inside-25_906_520" fill="white">
<path d="M43.0802 36.6865C42.8253 37.046 42.4929 37.3455 42.2998 37.7312C42.3116 37.3061 42.694 36.9368 43.0802 36.6865Z"/>
</mask>
<path d="M43.0802 36.6865C42.8253 37.046 42.4929 37.3455 42.2998 37.7312C42.3116 37.3061 42.694 36.9368 43.0802 36.6865Z" fill="black"/>
<path d="M43.0802 36.6865L43.896 37.2649L42.5365 35.8473L43.0802 36.6865ZM42.2998 37.7312L41.3002 37.7034L43.194 38.1789L42.2998 37.7312ZM42.2644 36.1082C42.1658 36.2472 42.0667 36.3558 41.8966 36.5613C41.7477 36.7412 41.5554 36.9844 41.4056 37.2835L43.194 38.1789C43.2373 38.0923 43.3078 37.9929 43.4371 37.8368C43.5452 37.7062 43.7397 37.4853 43.896 37.2649L42.2644 36.1082ZM43.2994 37.759C43.297 37.8444 43.2605 37.8532 43.322 37.7784C43.3814 37.7062 43.4846 37.616 43.6239 37.5258L42.5365 35.8473C42.2895 36.0073 42.0085 36.2269 41.7772 36.5082C41.548 36.7869 41.3144 37.193 41.3002 37.7034L43.2994 37.759Z" fill="white" mask="url(#path-61-inside-25_906_520)"/>
<mask id="path-63-inside-26_906_520" fill="white">
<path d="M40.9963 34.6025C40.9963 34.6025 40.7427 35.0823 40.4629 35.2517L40.9963 34.6025Z"/>
</mask>
<path d="M40.9963 34.6025C40.9963 34.6025 40.7427 35.0823 40.4629 35.2517L40.9963 34.6025Z" fill="white"/>
<path d="M40.9963 34.6025C40.1122 34.1352 40.1123 34.1351 40.1123 34.135C40.1124 34.1349 40.1124 34.1348 40.1125 34.1347C40.1126 34.1346 40.1126 34.1344 40.1127 34.1343C40.1129 34.1339 40.113 34.1337 40.1132 34.1334C40.1134 34.1329 40.1136 34.1325 40.1138 34.1322C40.1141 34.1317 40.1142 34.1315 40.1141 34.1317C40.1138 34.1321 40.1128 34.1341 40.1109 34.1374C40.1072 34.1441 40.1006 34.1558 40.0914 34.1714C40.0726 34.2032 40.0457 34.2465 40.0142 34.2917C39.9817 34.3384 39.9516 34.3764 39.9275 34.4027C39.8987 34.434 39.9033 34.4214 39.9451 34.3962L40.9807 36.1071C41.3122 35.9065 41.5455 35.5923 41.6549 35.4355C41.7217 35.3396 41.7757 35.2524 41.8132 35.1889C41.8322 35.1568 41.8475 35.1298 41.8588 35.1096C41.8644 35.0994 41.8691 35.0909 41.8727 35.0842C41.8745 35.0809 41.876 35.078 41.8773 35.0756C41.878 35.0744 41.8786 35.0733 41.8791 35.0724C41.8793 35.0719 41.8796 35.0714 41.8798 35.071C41.8799 35.0708 41.88 35.0706 41.8801 35.0704C41.8802 35.0703 41.8802 35.0702 41.8803 35.0701C41.8803 35.07 41.8804 35.0698 40.9963 34.6025Z" fill="white" mask="url(#path-63-inside-26_906_520)"/>
<mask id="path-65-inside-27_906_520" fill="white">
<path d="M40.9963 34.6025C40.924 34.8593 40.7559 35.1271 40.4629 35.2517C40.6626 35.0429 40.7979 34.8145 40.9963 34.6025Z"/>
</mask>
<path d="M40.9963 34.6025C40.924 34.8593 40.7559 35.1271 40.4629 35.2517C40.6626 35.0429 40.7979 34.8145 40.9963 34.6025Z" fill="black"/>
<path d="M40.9963 34.6025L41.9589 34.8734L40.2661 33.9193L40.9963 34.6025ZM40.4629 35.2517L39.7403 34.5603L40.8542 36.1719L40.4629 35.2517ZM40.0337 34.3317C40.0306 34.3427 40.0268 34.3524 40.0232 34.3599C40.0196 34.3673 40.0174 34.37 40.0182 34.369C40.0192 34.3677 40.024 34.3618 40.0337 34.3539C40.0439 34.3457 40.0569 34.3376 40.0716 34.3314L40.8542 36.1719C41.5125 35.892 41.8338 35.3179 41.9589 34.8734L40.0337 34.3317ZM41.1854 35.943C41.3294 35.7925 41.4447 35.6404 41.5255 35.5345C41.6147 35.4174 41.6678 35.3485 41.7265 35.2858L40.2661 33.9193C40.1265 34.0685 40.0127 34.2199 39.9347 34.3222C39.8482 34.4357 39.7961 34.5021 39.7403 34.5603L41.1854 35.943Z" fill="white" mask="url(#path-65-inside-27_906_520)"/>
<mask id="path-67-inside-28_906_520" fill="white">
<path d="M69.1647 42.1333C72.4874 43.1343 76.9925 45.2466 77.7348 48.3731C78.0422 49.715 77.3433 51.1356 76.1214 52.0142C74.2545 53.3813 71.7543 53.8742 69.3684 54.1473C67.596 54.3233 65.8013 54.3561 64.0264 54.2479C67.9113 53.8829 76.4866 53.2677 76.9071 49.1457C77.0227 46.0083 72.1143 43.4829 69.1647 42.1333Z"/>
</mask>
<path d="M69.1647 42.1333C72.4874 43.1343 76.9925 45.2466 77.7348 48.3731C78.0422 49.715 77.3433 51.1356 76.1214 52.0142C74.2545 53.3813 71.7543 53.8742 69.3684 54.1473C67.596 54.3233 65.8013 54.3561 64.0264 54.2479C67.9113 53.8829 76.4866 53.2677 76.9071 49.1457C77.0227 46.0083 72.1143 43.4829 69.1647 42.1333Z" fill="black"/>
<path d="M69.1647 42.1333L69.4532 41.1758L68.7486 43.0426L69.1647 42.1333ZM77.7348 48.3731L78.7096 48.1498L78.7077 48.1421L77.7348 48.3731ZM76.1214 52.0142L75.5376 51.2023L75.5306 51.2074L76.1214 52.0142ZM69.3684 54.1473L69.4671 55.1425L69.4746 55.1417L69.4821 55.1409L69.3684 54.1473ZM64.0264 54.2479L63.9328 53.2523L63.9655 55.246L64.0264 54.2479ZM76.9071 49.1457L77.9019 49.2472L77.9052 49.2149L77.9064 49.1825L76.9071 49.1457ZM68.8763 43.0908C70.4835 43.575 72.3474 44.3205 73.8791 45.2989C75.4414 46.2969 76.4815 47.4233 76.7618 48.6041L78.7077 48.1421C78.2458 46.1964 76.6621 44.7034 74.9557 43.6134C73.2185 42.5037 71.1686 41.6926 69.4532 41.1758L68.8763 43.0908ZM76.76 48.5964C76.9547 49.4463 76.5247 50.4926 75.5376 51.2023L76.7052 52.8261C78.1618 51.7787 79.1297 49.9838 78.7095 48.1498L76.76 48.5964ZM75.5306 51.2074C73.8915 52.4077 71.6241 52.8825 69.2546 53.1538L69.4821 55.1409C71.8844 54.8658 74.6175 54.3549 76.7122 52.8211L75.5306 51.2074ZM69.2696 53.1522C67.5507 53.3229 65.8094 53.3547 64.0872 53.2497L63.9655 55.246C65.7932 55.3574 67.6413 55.3237 69.4671 55.1425L69.2696 53.1522ZM64.1199 55.2435C66.0314 55.0639 69.2424 54.813 72.0234 54.0719C73.4131 53.7016 74.7735 53.19 75.8347 52.4513C76.9091 51.7034 77.7578 50.6602 77.9019 49.2472L75.9122 49.0442C75.8461 49.6922 75.4652 50.2716 74.6921 50.8098C73.9058 51.3571 72.8007 51.795 71.5084 52.1394C68.9254 52.8277 65.9063 53.0669 63.9328 53.2523L64.1199 55.2435ZM77.9064 49.1825C77.984 47.0771 76.3974 45.3845 74.7873 44.1706C73.114 42.909 71.0656 41.9033 69.5808 41.224L68.7486 43.0426C70.2134 43.7128 72.0939 44.6447 73.5833 45.7676C75.1359 46.9381 75.9458 48.0769 75.9077 49.1089L77.9064 49.1825Z" fill="white" mask="url(#path-67-inside-28_906_520)"/>
</svg>
